<?xml version="1.0" encoding="UTF-8"?>
<svg version="1.1" xmlns="http://www.w3.org/2000/svg" width="238" height="226">
<path d="M0 0 C2.45992921 0.00847333 4.9174979 -0.02028769 7.37719727 -0.05200195 C37.04834366 -0.18272085 64.66689286 12.27828866 85.99633789 32.67260742 C91.85331235 38.48050109 97.51076099 44.35784867 101.79321289 51.44604492 C102.25211914 52.17178711 102.71102539 52.8975293 103.18383789 53.64526367 C106.9494776 59.70261846 110.23718301 65.78095434 112.79321289 72.44604492 C113.26243164 73.65260742 113.73165039 74.85916992 114.21508789 76.10229492 C121.59693468 97.6212189 121.04629292 126.68717167 111.79321289 147.44604492 C111.48287109 148.16614746 111.1725293 148.88625 110.8527832 149.62817383 C106.87585136 158.68268685 101.96046438 166.69594372 95.79321289 174.44604492 C95.09454102 175.37030273 94.39586914 176.29456055 93.67602539 177.24682617 C88.41717896 184.01221045 82.64317473 189.32075342 75.79321289 194.44604492 C74.97981445 195.0622168 74.16641602 195.67838867 73.32836914 196.31323242 C46.96142287 215.54358221 14.5026714 221.84713208 -17.51928711 217.25854492 C-39.69925445 213.71317563 -58.74627902 203.70356452 -75.82397461 189.39916992 C-78.24428164 187.34993916 -78.24428164 187.34993916 -81.20678711 185.44604492 C-81.20678711 184.78604492 -81.20678711 184.12604492 -81.20678711 183.44604492 C-81.86678711 183.44604492 -82.52678711 183.44604492 -83.20678711 183.44604492 C-104.73388126 160.77902317 -114.04690746 132.35692476 -113.30004883 101.63696289 C-113.10669726 97.09471954 -112.32004823 92.8424829 -111.20678711 88.44604492 C-110.92706055 87.26655273 -110.64733398 86.08706055 -110.35913086 84.87182617 C-107.17103364 72.10653002 -102.67057781 61.2825946 -95.20678711 50.44604492 C-94.61124023 49.55143555 -94.01569336 48.65682617 -93.40209961 47.73510742 C-85.5230998 36.32526953 -75.78109147 27.05654642 -64.20678711 19.44604492 C-63.14202148 18.74479492 -62.07725586 18.04354492 -60.98022461 17.32104492 C-50.55935626 10.68292738 -40.06615521 6.77121956 -28.20678711 3.44604492 C-27.40490967 3.19089111 -26.60303223 2.9357373 -25.77685547 2.67285156 C-17.16809751 0.16448264 -8.89228923 -0.04650136 0 0 Z " fill="#FAFAFC" transform="translate(118.206787109375,-0.446044921875)"/>
<path d="M0 0 C2.45992921 0.00847333 4.9174979 -0.02028769 7.37719727 -0.05200195 C37.04834366 -0.18272085 64.66689286 12.27828866 85.99633789 32.67260742 C97.86276609 44.43959628 97.86276609 44.43959628 101.79321289 51.44604492 C101.79321289 52.43604492 101.79321289 53.42604492 101.79321289 54.44604492 C100.53045532 54.4679187 100.53045532 54.4679187 99.2421875 54.49023438 C96.09028599 54.55163646 92.93900828 54.62585223 89.78759766 54.70849609 C88.42898746 54.74155426 87.07024623 54.76964453 85.71142578 54.79248047 C83.74752609 54.82637811 81.78400284 54.88019608 79.82055664 54.93432617 C78.64227295 54.96051025 77.46398926 54.98669434 76.25 55.01367188 C72.95763294 55.42547935 70.74100599 56.38104197 67.76878357 57.76277161 C63.6796391 59.17704816 59.33065914 58.92954753 55.04711914 58.95776367 C54.03600571 58.97571487 53.02489227 58.99366608 51.98313904 59.01216125 C48.77403859 59.06606534 45.5650852 59.10009641 42.35571289 59.13354492 C40.17144773 59.16673552 37.98720192 59.20122678 35.80297852 59.23706055 C30.46652189 59.32178016 25.13004576 59.39021379 19.79321289 59.44604492 C20.44303201 62.55148241 20.44303201 62.55148241 22.75415039 63.47338867 C23.55079102 63.77374023 24.34743164 64.0740918 25.16821289 64.38354492 C31.04855516 66.84768835 31.04855516 66.84768835 32.79321289 70.44604492 C33.89155945 74.70438458 33.95431753 78.89624842 33.96118164 83.26635742 C33.96451004 84.00683319 33.96783844 84.74730896 33.9712677 85.51022339 C33.97631109 87.06841412 33.97867683 88.62661557 33.97851562 90.18481445 C33.98071216 92.5702472 33.99892207 94.9552245 34.01782227 97.34057617 C34.02075471 98.85750168 34.0227405 100.37442937 34.02368164 101.89135742 C34.03086716 102.60389679 34.03805267 103.31643616 34.04545593 104.05056763 C34.02835342 107.74353489 33.8990529 109.28728491 31.79321289 112.44604492 C29.35079956 112.80680847 29.35079956 112.80680847 26.24194336 112.78662109 C25.08089081 112.7863945 23.91983826 112.78616791 22.72360229 112.78593445 C21.46524567 112.77045059 20.20688904 112.75496674 18.91040039 112.73901367 C16.98358932 112.73264641 16.98358932 112.73264641 15.01785278 112.72615051 C11.60148648 112.71469172 8.18550234 112.68521635 4.76928711 112.65203857 C1.28382538 112.62135954 -2.20169805 112.60764986 -5.68725586 112.5925293 C-12.52725668 112.56034713 -19.36700355 112.50913868 -26.20678711 112.44604492 C-26.30579527 106.55620205 -26.37832192 100.66684547 -26.42651367 94.77636719 C-26.44660702 92.77335164 -26.47388676 90.7703946 -26.50854492 88.76757812 C-26.55716322 85.88551384 -26.57977863 83.00422626 -26.59741211 80.12182617 C-26.61805725 79.22893387 -26.63870239 78.33604156 -26.65997314 77.41609192 C-26.66146675 73.26094461 -26.56353815 71.0310865 -24.35717773 67.4128418 C-21.78093891 65.05655433 -19.84475329 64.39987061 -16.45678711 63.63354492 C-14.97952148 63.28356445 -14.97952148 63.28356445 -13.47241211 62.92651367 C-12.35092773 62.68868164 -12.35092773 62.68868164 -11.20678711 62.44604492 C-11.53678711 61.45604492 -11.86678711 60.46604492 -12.20678711 59.44604492 C-13.27936768 59.4314624 -14.35194824 59.41687988 -15.45703125 59.40185547 C-19.51104891 59.34302517 -23.56455905 59.26581469 -27.61816406 59.18359375 C-29.35863896 59.15073646 -31.09921041 59.12258858 -32.83984375 59.09960938 C-42.86304688 58.96380927 -52.31366619 58.39485584 -62.09545898 56.12084961 C-72.61685899 53.83890127 -85.47399385 55.62103773 -94.90209961 60.97729492 C-96.77449585 62.38677401 -98.48700637 63.8578569 -100.20678711 65.44604492 C-101.69178711 66.43604492 -101.69178711 66.43604492 -103.20678711 67.44604492 C-102.40607506 60.50316196 -99.09149822 56.09928211 -95.20678711 50.44604492 C-94.60608398 49.54370117 -94.00538086 48.64135742 -93.38647461 47.71166992 C-85.51200861 36.31181537 -75.77178265 27.05042555 -64.20678711 19.44604492 C-63.14202148 18.74479492 -62.07725586 18.04354492 -60.98022461 17.32104492 C-50.55935626 10.68292738 -40.06615521 6.77121956 -28.20678711 3.44604492 C-27.40490967 3.19089111 -26.60303223 2.9357373 -25.77685547 2.67285156 C-17.16809751 0.16448264 -8.89228923 -0.04650136 0 0 Z " fill="#363995" transform="translate(118.206787109375,-0.446044921875)"/>
<path d="M0 0 C7.54498233 -0.02312851 15.08996101 -0.04091769 22.63497066 -0.05181217 C26.13808885 -0.05703989 29.64118285 -0.0641355 33.14428711 -0.07543945 C37.16780841 -0.08834206 41.19130414 -0.09322912 45.21484375 -0.09765625 C46.47836166 -0.10281754 47.74187958 -0.10797882 49.04368591 -0.11329651 C50.204814 -0.11337204 51.36594208 -0.11344757 52.56225586 -0.11352539 C54.1044706 -0.11685631 54.1044706 -0.11685631 55.67784119 -0.12025452 C58 0 58 0 59 1 C61.4176787 39.65035254 61.4176787 39.65035254 54.6484375 47.84765625 C52.43400202 49.64729334 50.97097178 50.70820457 48.3125 51.5625 C44.71236052 53.12482468 44.4150229 53.59139804 43 57 C50.08413941 57.02529271 57.16826723 57.04284261 64.25244141 57.05493164 C66.66390417 57.05996974 69.07536386 57.06680034 71.48681641 57.07543945 C74.94694779 57.08752787 78.4070389 57.09323344 81.8671875 57.09765625 C82.95055389 57.10281754 84.03392029 57.10797882 85.15011597 57.11329651 C86.1510025 57.11337204 87.15188904 57.11344757 88.18310547 57.11352539 C89.06690887 57.115746 89.95071228 57.11796661 90.86129761 57.12025452 C93.05276775 57.13873944 93.05276775 57.13873944 95 56 C95.66 55.01 96.32 54.02 97 53 C97.5625 54.9375 97.5625 54.9375 98 57 C97.67 57.33 97.34 57.66 97 58 C99.04159095 58.0272616 101.08328963 58.04651345 103.125 58.0625 C104.26195312 58.07410156 105.39890625 58.08570313 106.5703125 58.09765625 C109.8129156 58.005327 112.81932612 57.61389906 116 57 C105.35517683 76.76895732 77.71194105 86.84516418 57.44140625 93.09765625 C25.76364705 101.40362943 -7.79748406 94.72337742 -35.62109375 78.46875 C-40.94675025 75.05121642 -45.77141013 71.01198126 -50.6171875 66.953125 C-53.03749453 64.90389423 -53.03749453 64.90389423 -56 63 C-56 62.34 -56 61.68 -56 61 C-56.66 60.67 -57.32 60.34 -58 60 C-56.99582031 59.92523438 -55.99164063 59.85046875 -54.95703125 59.7734375 C-42.84119266 58.68350339 -30.23517284 55.71879406 -22 46 C-18.42943734 41.02235912 -15.25529008 36.25460686 -15 30 C-14.95101562 29.20078125 -14.90203125 28.4015625 -14.8515625 27.578125 C-14.59528115 20.59938673 -15.84935084 14.61836675 -18 8 C-12.29531925 13.40321388 -11.87343406 18.18557424 -11.625 25.8125 C-11.79320141 35.72587062 -15.12874501 43.81535094 -22 51 C-23.53589133 52.12480443 -25.10665788 53.20337923 -26.70703125 54.234375 C-27.51245361 54.75741211 -28.31787598 55.28044922 -29.14770508 55.81933594 C-30.06459106 56.40376465 -30.06459106 56.40376465 -31 57 C-25.05517888 57.02467203 -19.1103874 57.04284663 -13.16552734 57.05493164 C-11.14208457 57.05996831 -9.11864544 57.06679789 -7.09521484 57.07543945 C-4.19107157 57.08753412 -1.28697631 57.09323488 1.6171875 57.09765625 C2.97975174 57.10539818 2.97975174 57.10539818 4.36984253 57.11329651 C5.63092331 57.11340981 5.63092331 57.11340981 6.91748047 57.11352539 C7.65916473 57.115746 8.400849 57.11796661 9.16500854 57.12025452 C11.09774915 57.11269473 11.09774915 57.11269473 13 56 C13 55.01 13 54.02 13 53 C12.39671875 52.74605469 11.7934375 52.49210937 11.171875 52.23046875 C2.49291785 48.49291785 2.49291785 48.49291785 0 46 C-1.27154828 41.89870243 -1.35386317 37.69842321 -1.5625 33.4375 C-1.6035083 32.60919678 -1.6445166 31.78089355 -1.68676758 30.92749023 C-1.96525561 24.80709583 -2.13446476 18.68896354 -2.1875 12.5625 C-2.20047119 11.76448975 -2.21344238 10.96647949 -2.22680664 10.14428711 C-2.23324187 6.16345552 -1.93963741 3.4588679 0 0 Z " fill="#313493" transform="translate(93,122)"/>
<path d="M0 0 C40.59 0 81.18 0 123 0 C123 4.95 123 9.9 123 15 C82.41 15 41.82 15 0 15 C0 10.05 0 5.1 0 0 Z " fill="#3F429A" transform="translate(61,39)"/>
<path d="M0 0 C0.66 0 1.32 0 2 0 C1.80859375 1.84765625 1.80859375 1.84765625 1 4 C-1.4687924 5.45863396 -4.00405263 6.46498289 -6.65234375 7.55859375 C-9.72818426 9.44708817 -9.97101321 10.54134382 -11 14 C-11.38267195 17.14642171 -11.51131837 20.29102747 -11.6328125 23.45703125 C-11.67437469 24.35999435 -11.71593689 25.26295746 -11.75875854 26.19328308 C-11.8890955 29.06605807 -12.00721167 31.93918586 -12.125 34.8125 C-12.21143291 36.76500983 -12.29866348 38.71748453 -12.38671875 40.66992188 C-12.60039015 45.44625683 -12.80310595 50.22294522 -13 55 C-12.34 55 -11.68 55 -11 55 C-9.86990737 56.14524712 -8.7427354 57.2934803 -7.62792969 58.45361328 C-4.26463105 61.64844435 -0.38482139 64.23403709 3.375 66.9375 C23.0390384 81.11711519 23.0390384 81.11711519 26 90 C26.57060449 96.27664941 26.29610875 101.47104339 23 107 C17.8342866 112.39774308 13.91795249 114.16136518 6.375 114.375 C-0.32169294 114.36110645 -4.64917589 112.96357341 -10 109 C-10 109.99 -10 110.98 -10 112 C-13.63417959 108.60028361 -14.9324546 106.71061051 -15.13371277 101.61367798 C-15.14271314 100.18860151 -15.1461417 98.76348353 -15.14526367 97.33837891 C-15.14862228 96.55902985 -15.1519809 95.77968079 -15.15544128 94.97671509 C-15.16495774 92.39331474 -15.16689552 89.8099793 -15.16796875 87.2265625 C-15.17118363 85.42353285 -15.17454787 83.62050347 -15.17805481 81.81747437 C-15.18404976 78.02951454 -15.18589461 74.24157752 -15.18530273 70.45361328 C-15.18520173 65.63124357 -15.19878843 60.80902314 -15.21607494 55.98668861 C-15.22727659 52.25629016 -15.22921936 48.52592669 -15.22869301 44.79551315 C-15.22986338 43.01995713 -15.23423139 41.24439992 -15.24202538 39.46886063 C-15.34556709 13.41782634 -15.34556709 13.41782634 -10.8125 6.8125 C-7.62959141 4.76129224 -4.63648038 3.97905241 -1 3 C-0.67 2.01 -0.34 1.02 0 0 Z " fill="#303392" transform="translate(189,59)"/>
<path d="M0 0 C6.55266905 2.72499777 11.11784942 8.51101726 13.84765625 14.94238281 C15.04251883 19.42691473 15.01854631 23.55741307 14.96484375 28.17578125 C14.96201385 29.09952545 14.95918396 30.02326965 14.95626831 30.9750061 C14.94512304 33.90925351 14.9200289 36.84318945 14.89453125 39.77734375 C14.88449414 41.77343307 14.87536957 43.76952721 14.8671875 45.765625 C14.84520222 50.64465024 14.81071142 55.52344429 14.76953125 60.40234375 C14.22452469 59.9934642 13.67951813 59.58458466 13.11799622 59.16331482 C12.40076889 58.62529739 11.68354156 58.08727997 10.94458008 57.53295898 C9.87957024 56.73401466 9.87957024 56.73401466 8.79304504 55.91893005 C2.70930519 51.35927913 -3.34388684 46.89911422 -9.85546875 42.96484375 C-17.34672163 38.23183155 -24.63457044 32.66112833 -26.9296875 23.73046875 C-27.65683257 18.10217706 -27.10998723 13.30796711 -24.73046875 8.15234375 C-17.61584931 0.32626237 -10.49358062 -2.81176503 0 0 Z " fill="#313493" transform="translate(54.23046875,61.59765625)"/>
<path d="M0 0 C0.66 0.33 1.32 0.66 2 1 C1.34 1.66 0.68 2.32 0 3 C1.58271233 4.27160666 3.16619635 5.54225285 4.75 6.8125 C5.63171875 7.52019531 6.5134375 8.22789062 7.421875 8.95703125 C9.02408613 10.22666219 10.65576934 11.46101905 12.328125 12.63671875 C13.15570313 13.31154297 13.15570313 13.31154297 14 14 C14 14.66 14 15.32 14 16 C14.99 15.67 15.98 15.34 17 15 C17.66 15.33 18.32 15.66 19 16 C19.625 18.0625 19.625 18.0625 20 20 C21.32 20 22.64 20 24 20 C27.75 21.5 27.75 21.5 29 24 C29.66 23.67 30.32 23.34 31 23 C31.495 24.485 31.495 24.485 32 26 C32.495 24.515 32.495 24.515 33 23 C33.556875 23.309375 34.11375 23.61875 34.6875 23.9375 C37.15364096 25.07059179 39.33008521 25.54416089 42 26 C45.80680687 26.68327303 49.34716659 27.72575579 53 29 C53 29.99 53 30.98 53 32 C53.66 32 54.32 32 55 32 C55 31.01 55 30.02 55 29 C55.639375 29.185625 56.27875 29.37125 56.9375 29.5625 C57.618125 29.706875 58.29875 29.85125 59 30 C59.495 29.505 59.495 29.505 60 29 C63 28.875 63 28.875 66 29 C66.33 29.33 66.66 29.66 67 30 C68.51928038 30.07179964 70.04167482 30.08392007 71.5625 30.0625 C72.38878906 30.05347656 73.21507813 30.04445312 74.06640625 30.03515625 C74.70449219 30.02355469 75.34257812 30.01195312 76 30 C76 30.99 76 31.98 76 33 C76.66 33 77.32 33 78 33 C78.33 32.01 78.66 31.02 79 30 C79 30.66 79 31.32 79 32 C79.66 32 80.32 32 81 32 C81.495 30.515 81.495 30.515 82 29 C83.051875 28.855625 84.10375 28.71125 85.1875 28.5625 C88.81089203 28.08803102 88.81089203 28.08803102 91.5625 27.375 C94.56678936 26.91280164 97.04230208 27.38094695 100 28 C100 27.34 100 26.68 100 26 C100.66 26 101.32 26 102 26 C102 26.66 102 27.32 102 28 C102.66 28 103.32 28 104 28 C103.505 26.515 103.505 26.515 103 25 C103.66 25 104.32 25 105 25 C105 25.66 105 26.32 105 27 C105.66 27 106.32 27 107 27 C107 25.35 107 23.7 107 22 C108.24663331 21.49166409 109.49749387 20.99368855 110.75 20.5 C111.44609375 20.2215625 112.1421875 19.943125 112.859375 19.65625 C115 19 115 19 119 19 C119.33 18.34 119.66 17.68 120 17 C120.33 17.66 120.66 18.32 121 19 C121.99 18.67 122.98 18.34 124 18 C124 18.99 124 19.98 124 21 C123.278125 21.2475 122.55625 21.495 121.8125 21.75 C118.11106462 23.39508239 114.79522349 25.22090667 113.09228516 29.03076172 C111.73090335 31.48514384 110.84753044 31.79330341 108.2109375 32.6328125 C107.44273682 32.8807959 106.67453613 33.1287793 105.88305664 33.38427734 C105.05539795 33.62871582 104.22773926 33.8731543 103.375 34.125 C102.5183374 34.38361816 101.6616748 34.64223633 100.77905273 34.90869141 C69.49878882 43.97014122 36.08808249 39.3136612 7.70654297 23.94921875 C0.65256654 20.02563358 -5.43986231 15.12729482 -11.6171875 9.953125 C-14.03749453 7.90389423 -14.03749453 7.90389423 -17 6 C-17 5.34 -17 4.68 -17 4 C-17.66 3.67 -18.32 3.34 -19 3 C-17.87980469 2.86722656 -16.75960937 2.73445312 -15.60546875 2.59765625 C-14.13279271 2.41943431 -12.66013753 2.24103989 -11.1875 2.0625 C-10.44951172 1.97548828 -9.71152344 1.88847656 -8.95117188 1.79882812 C-5.83266879 1.41783454 -2.98891878 0.99630626 0 0 Z " fill="#46489E" transform="translate(54,179)"/>
<path d="M0 0 C10.56 0 21.12 0 32 0 C32 0.33 32 0.66 32 1 C29.69 1 27.38 1 25 1 C25.99 2.670625 25.99 2.670625 27 4.375 C29 7.75 29 7.75 29 10 C29.66 10 30.32 10 31 10 C30.01 7.69 29.02 5.38 28 3 C28.66 3 29.32 3 30 3 C33 7.38461538 33 7.38461538 33 10 C33.66 10 34.32 10 35 10 C35.66 7.69 36.32 5.38 37 3 C37.66 3 38.32 3 39 3 C39 2.34 39 1.68 39 1 C39.66 1 40.32 1 41 1 C40.01 4.3 39.02 7.6 38 11 C38.66 11 39.32 11 40 11 C40 10.01 40 9.02 40 8 C40.99 8 41.98 8 43 8 C43 8.66 43 9.32 43 10 C43.66 10 44.32 10 45 10 C44.01 7.03 43.02 4.06 42 1 C42.66 1 43.32 1 44 1 C44 1.66 44 2.32 44 3 C45.32 3.66 46.64 4.32 48 5 C48 6.65 48 8.3 48 10 C48.66 10 49.32 10 50 10 C49.505 5.545 49.505 5.545 49 1 C47.68 0.67 46.36 0.34 45 0 C47.97 0 50.94 0 54 0 C54 0.66 54 1.32 54 2 C53.01 2 52.02 2 51 2 C51.99 2.33 52.98 2.66 54 3 C54 6.3 54 9.6 54 13 C14.73 13 -24.54 13 -65 13 C-65 10.03 -65 7.06 -65 4 C-63.68 3.67 -62.36 3.34 -61 3 C-61 5.31 -61 7.62 -61 10 C-60.34 10 -59.68 10 -59 10 C-59 7.69 -59 5.38 -59 3 C-57.35 3 -55.7 3 -54 3 C-54 5.64 -54 8.28 -54 11 C-53.01 11 -52.02 11 -51 11 C-51 9.68 -51 8.36 -51 7 C-50.01 7 -49.02 7 -48 7 C-48 8.32 -48 9.64 -48 11 C-47.01 11 -46.02 11 -45 11 C-45 8.36 -45 5.72 -45 3 C-44.01 3 -43.02 3 -42 3 C-41.875 8.75 -41.875 8.75 -43 11 C-39.04 11.33 -35.08 11.66 -31 12 C-30.67 10.68 -30.34 9.36 -30 8 C-29.01 8.33 -28.02 8.66 -27 9 C-27 9.66 -27 10.32 -27 11 C-26.13375 10.7215625 -26.13375 10.7215625 -25.25 10.4375 C-22.79307475 9.95976454 -21.35602466 10.24270636 -19 11 C-19 8.36 -19 5.72 -19 3 C-17.35 3 -15.7 3 -14 3 C-13.875 8.75 -13.875 8.75 -15 11 C-11.7 11.33 -8.4 11.66 -5 12 C-5 9.69 -5 7.38 -5 5 C-3.2925002 6.28062485 -1.62626404 7.61767557 0 9 C0 9.66 0 10.32 0 11 C0.66 11 1.32 11 2 11 C1.979375 9.72125 1.95875 8.4425 1.9375 7.125 C1.875 3.25 1.875 3.25 3 1 C2.01 0.67 1.02 0.34 0 0 Z " fill="#3F429A" transform="translate(128,40)"/>
<path d="M0 0 C1.0725 0.165 2.145 0.33 3.25 0.5 C8.82258642 1.21160726 14.39263574 1.08411046 20 1 C20.33 2.98 20.66 4.96 21 7 C21.66 6.67 22.32 6.34 23 6 C23 6.99 23 7.98 23 9 C24.051875 8.95875 25.10375 8.9175 26.1875 8.875 C29.74010173 8.99147875 31.84866641 9.47208068 35 11 C34.67 11.66 34.34 12.32 34 13 C32.35 13 30.7 13 29 13 C29.99 13.99 30.98 14.98 32 16 C31.67 16.66 31.34 17.32 31 18 C31.99 18.33 32.98 18.66 34 19 C33.01 19 32.02 19 31 19 C31 21.64 31 24.28 31 27 C31.66 26.67 32.32 26.34 33 26 C33 25.01 33 24.02 33 23 C33.66 23 34.32 23 35 23 C37 26 37 26 36.8125 28.4375 C35.95218569 31.15079897 34.83477535 32.84613329 33 35 C32.01 34.505 32.01 34.505 31 34 C31.33 32.68 31.66 31.36 32 30 C30.68 30 29.36 30 28 30 C28 29.34 28 28.68 28 28 C27.34 28 26.68 28 26 28 C26.33 29.98 26.66 31.96 27 34 C26.01 34.495 26.01 34.495 25 35 C24.30710631 31.27569643 23.88855404 27.78916254 24 24 C24.99 23.67 25.98 23.34 27 23 C26.67 23.99 26.34 24.98 26 26 C26.99 26.33 27.98 26.66 29 27 C28.7525 25.8553125 28.7525 25.8553125 28.5 24.6875 C28 22 28 22 28 19 C25.36 19 22.72 19 20 19 C20.495 27.415 20.495 27.415 21 36 C23.578125 35.87625 26.15625 35.7525 28.8125 35.625 C29.62050049 35.59100098 30.42850098 35.55700195 31.26098633 35.52197266 C34.96958079 35.31632735 36.85233456 35.09844363 40 33 C39.49609375 34.96875 39.49609375 34.96875 38 37 C34.55667259 37.44961838 31.31429134 37.5066408 27.85351562 37.48828125 C23.43800215 37.51325378 23.43800215 37.51325378 19.99609375 40.03125 C19.66738281 40.6809375 19.33867188 41.330625 19 42 C18.7525 41.02546875 18.7525 41.02546875 18.5 40.03125 C17.7575 39.02578125 17.7575 39.02578125 17 38 C14.23184203 37.64204854 11.76804208 37.4854823 9 37.5 C6.23195792 37.5145177 3.76815797 37.35795146 1 37 C-0.5 34.96875 -0.5 34.96875 -1 33 C0.98 33.66 2.96 34.32 5 35 C3.35 33.35 1.7 31.7 0 30 C0.33 29.34 0.66 28.68 1 28 C3.64 30.31 6.28 32.62 9 35 C6.22237877 31.39937989 3.26008643 28.16952847 0 25 C0.33 24.34 0.66 23.68 1 23 C1.84304687 23.7940625 2.68609375 24.588125 3.5546875 25.40625 C4.6612162 26.4377598 5.76800029 27.46899569 6.875 28.5 C7.43058594 29.02464844 7.98617187 29.54929688 8.55859375 30.08984375 C11.32208581 33.02855354 11.32208581 33.02855354 15 34 C15.99 34 16.98 34 18 34 C18.33 33.34 18.66 32.68 19 32 C18.45859375 31.78601563 17.9171875 31.57203125 17.359375 31.3515625 C14.1607203 29.51922057 11.79035516 27.00203394 9.25 24.375 C8.74339844 23.859375 8.23679687 23.34375 7.71484375 22.8125 C6.47196098 21.54616661 5.23534724 20.2736856 4 19 C4.33 18.34 4.66 17.68 5 17 C6.65 17.33 8.3 17.66 10 18 C10 18.99 10 19.98 10 21 C11.76248102 23.12708293 11.76248102 23.12708293 14 25.1875 C14.7425 25.90292969 15.485 26.61835938 16.25 27.35546875 C16.8275 27.89816406 17.405 28.44085938 18 29 C16.47427344 25.67364118 15.06655496 24.04436998 12 22 C12.33 21.01 12.66 20.02 13 19 C14.65 20.65 16.3 22.3 18 24 C17.34 22.35 16.68 20.7 16 19 C16.99 18.67 17.98 18.34 19 18 C18.01 17.67 17.02 17.34 16 17 C16.33 15.02 16.66 13.04 17 11 C16.67 11.66 16.34 12.32 16 13 C15.34 13 14.68 13 14 13 C14 12.34 14 11.68 14 11 C13.01 10.67 12.02 10.34 11 10 C11.33 9.01 11.66 8.02 12 7 C11.01 7.33 10.02 7.66 9 8 C8.34 7.67 7.68 7.34 7 7 C7.33 7.99 7.66 8.98 8 10 C5.03 9.505 5.03 9.505 2 9 C1.67 10.32 1.34 11.64 1 13 C0.67 13 0.34 13 0 13 C0 8.71 0 4.42 0 0 Z " fill="#F5F4F9" transform="translate(101,128)"/>
<path d="M0 0 C12.87 0 25.74 0 39 0 C39.0825 5.383125 39.165 10.76625 39.25 16.3125 C39.28641602 18.00802002 39.32283203 19.70354004 39.36035156 21.45043945 C39.37203543 22.79637383 39.38222798 24.14232235 39.390625 25.48828125 C39.41108887 26.18546265 39.43155273 26.88264404 39.45263672 27.60095215 C39.45493797 30.78876365 39.42626361 32.53275856 37.23242188 34.9375 C34.93975317 36.02867391 33.41256908 36.41619057 30.890625 36.51171875 C30.21032227 36.54483154 29.53001953 36.57794434 28.82910156 36.61206055 C27.97799805 36.63695557 27.12689453 36.66185059 26.25 36.6875 C23.5275 36.790625 20.805 36.89375 18 37 C18 31.06 18 25.12 18 19 C20.64 19 23.28 19 26 19 C26.33 21.64 26.66 24.28 27 27 C25.68 26.67 24.36 26.34 23 26 C23.66 25.67 24.32 25.34 25 25 C25 24.34 25 23.68 25 23 C24.34 23.33 23.68 23.66 23 24 C22.979375 25.27875 22.95875 26.5575 22.9375 27.875 C22.92589844 28.59429687 22.91429688 29.31359375 22.90234375 30.0546875 C22.87350758 32.08185404 22.87350758 32.08185404 24 34 C24 32.02 24 30.04 24 28 C24.66 28 25.32 28 26 28 C26 28.66 26 29.32 26 30 C27.32 30 28.64 30 30 30 C30.33 29.34 30.66 28.68 31 28 C30.49396008 30.16874252 30.00016187 31.99967627 29 34 C31.13871247 34.22646934 31.13871247 34.22646934 32.6875 32.4375 C34.52326619 29.02821993 33.78222319 26.69778233 33 23 C32.01 23.495 32.01 23.495 31 24 C31 24.99 31 25.98 31 27 C30.34 27 29.68 27 29 27 C27.94595055 23.01803543 28.15901344 20.01804691 29 16 C27.02 15.34 25.04 14.68 23 14 C26.13498292 12.14223235 28.37471432 11.79859524 32 12 C29.06149334 10.97493954 26.25569351 10.04545662 23.1875 9.5 C22.465625 9.335 21.74375 9.17 21 9 C20.67 8.34 20.34 7.68 20 7 C19.01 7.495 19.01 7.495 18 8 C17.67 6.02 17.34 4.04 17 2 C15.91332031 2.01740234 15.91332031 2.01740234 14.8046875 2.03515625 C9.75216677 2.08231311 4.96621233 2.07377564 0 1 C0 0.67 0 0.34 0 0 Z " fill="#9A99C9" transform="translate(103,128)"/>
<path d="M0 0 C40.59 0 81.18 0 123 0 C123 4.95 123 9.9 123 15 C82.41 15 41.82 15 0 15 C0 10.05 0 5.1 0 0 Z M2 1 C2 1.66 2 2.32 2 3 C4.97 3.495 4.97 3.495 8 4 C8 6.31 8 8.62 8 11 C7.34 11 6.68 11 6 11 C6 8.69 6 6.38 6 4 C4.68 4.33 3.36 4.66 2 5 C2 7.97 2 10.94 2 14 C41.27 14 80.54 14 121 14 C121 10.7 121 7.4 121 4 C120.01 3.67 119.02 3.34 118 3 C118.99 3 119.98 3 121 3 C121 2.34 121 1.68 121 1 C118.03 1 115.06 1 112 1 C113.32 1.33 114.64 1.66 116 2 C116.495 6.455 116.495 6.455 117 11 C116.34 11 115.68 11 115 11 C115 9.35 115 7.7 115 6 C113.68 5.34 112.36 4.68 111 4 C111 3.34 111 2.68 111 2 C110.34 2 109.68 2 109 2 C109.99 4.97 110.98 7.94 112 11 C111.34 11 110.68 11 110 11 C110 10.34 110 9.68 110 9 C109.01 9 108.02 9 107 9 C107 9.99 107 10.98 107 12 C106.34 12 105.68 12 105 12 C105.99 8.7 106.98 5.4 108 2 C107.34 2 106.68 2 106 2 C106 2.66 106 3.32 106 4 C105.34 4 104.68 4 104 4 C103.34 6.31 102.68 8.62 102 11 C101.34 11 100.68 11 100 11 C99.690625 10.21625 99.38125 9.4325 99.0625 8.625 C98.07124962 6.07669872 98.07124962 6.07669872 97 4 C96.34 4.33 95.68 4.66 95 5 C95.99 6.98 96.98 8.96 98 11 C97.34 11 96.68 11 96 11 C95.71125 10.071875 95.4225 9.14375 95.125 8.1875 C94.1125 4.90208333 94.1125 4.90208333 92 2 C94.31 2 96.62 2 99 2 C99 1.67 99 1.34 99 1 C66.99 1 34.98 1 2 1 Z " fill="#D1D0E6" transform="translate(61,39)"/>
<path d="M0 0 C0.66 0 1.32 0 2 0 C2.33 3.96 2.66 7.92 3 12 C3.33 11.01 3.66 10.02 4 9 C6.97 9.495 6.97 9.495 10 10 C9.01 8.68 8.02 7.36 7 6 C9 6 11 6 13 6 C13.99 5.67 14.98 5.34 16 5 C16 5.66 16 6.32 16 7 C15.01 7.495 15.01 7.495 14 8 C14 8.66 14 9.32 14 10 C14.66 10.33 15.32 10.66 16 11 C16.33 11.33 16.66 11.66 17 12 C17.66 11.67 18.32 11.34 19 11 C19 12.98 19 14.96 19 17 C19.66 17.33 20.32 17.66 21 18 C20.67 18.66 20.34 19.32 20 20 C20.33 20.66 20.66 21.32 21 22 C20.67 22.99 20.34 23.98 20 25 C18.35 23.35 16.7 21.7 15 20 C15 20.66 15 21.32 15 22 C16.95927063 23.7143618 18.95880212 25.38405168 21 27 C20.67 27.99 20.34 28.98 20 30 C18.35113941 28.37807179 16.7059976 26.75236228 15.0625 25.125 C14.14597656 24.22007812 13.22945312 23.31515625 12.28515625 22.3828125 C10 20 10 20 9 18 C8.34 18.33 7.68 18.66 7 19 C8.95531865 20.9822267 10.91405666 22.96085116 12.875 24.9375 C13.43058594 25.50146484 13.98617187 26.06542969 14.55859375 26.64648438 C17.4921571 29.69860028 17.4921571 29.69860028 21 32 C20.67 32.99 20.34 33.98 20 35 C19.67 35 19.34 35 19 35 C17.515 35.495 17.515 35.495 16 36 C15.39671875 35.37351563 14.7934375 34.74703125 14.171875 34.1015625 C13.37265625 33.28429687 12.5734375 32.46703125 11.75 31.625 C10.96109375 30.81289062 10.1721875 30.00078125 9.359375 29.1640625 C6.92796521 26.73480812 6.92796521 26.73480812 3 25 C6.3 28.3 9.6 31.6 13 35 C9.41087588 35 8.89142971 34.33563446 6.3125 32 C5.68988281 31.443125 5.06726563 30.88625 4.42578125 30.3125 C3.95527344 29.879375 3.48476562 29.44625 3 29 C4.65 31.31 6.3 33.62 8 36 C4 35 4 35 0 33 C0 22.11 0 11.22 0 0 Z " fill="#EDEDF5" transform="translate(99,128)"/>
<path d="M0 0 C2.64 0.33 5.28 0.66 8 1 C8.05382106 3.62527189 8.09358313 6.24944713 8.125 8.875 C8.14175781 9.62136719 8.15851563 10.36773437 8.17578125 11.13671875 C8.1933959 13.09194461 8.10320189 15.04742021 8 17 C4.98131027 20.01868973 1.43099678 19.4663688 -2.625 19.625 C-5.38875 19.74875 -8.1525 19.8725 -11 20 C-11 14.06 -11 8.12 -11 2 C-8.36 2 -5.72 2 -3 2 C-2.67 4.64 -2.34 7.28 -2 10 C-3.32 9.67 -4.64 9.34 -6 9 C-5.34 8.67 -4.68 8.34 -4 8 C-4 7.34 -4 6.68 -4 6 C-4.99 6.495 -4.99 6.495 -6 7 C-6.020625 8.27875 -6.04125 9.5575 -6.0625 10.875 C-6.07410156 11.59429687 -6.08570312 12.31359375 -6.09765625 13.0546875 C-6.12649242 15.08185404 -6.12649242 15.08185404 -5 17 C-5 15.02 -5 13.04 -5 11 C-4.34 11 -3.68 11 -3 11 C-3 11.66 -3 12.32 -3 13 C-1.68 13 -0.36 13 1 13 C1.33 12.34 1.66 11.68 2 11 C1.49396008 13.16874252 1.00016187 14.99967627 0 17 C2.13871247 17.22646934 2.13871247 17.22646934 3.6875 15.4375 C5.52326619 12.02821993 4.78222319 9.69778233 4 6 C3.01 6.495 3.01 6.495 2 7 C2 7.99 2 8.98 2 10 C1.34 10 0.68 10 0 10 C-0.95024979 6.30458414 -0.95024979 3.69541586 0 0 Z " fill="#343794" transform="translate(132,145)"/>
<path d="M0 0 C5.0539314 1.58978036 8.7128178 4.6462081 12.8125 7.875 C14.33151175 9.05405501 15.85105591 10.23242437 17.37109375 11.41015625 C18.52520752 12.30758545 18.52520752 12.30758545 19.70263672 13.22314453 C23.23406753 15.95446796 26.80212751 18.63575654 30.375 21.3125 C31.03153564 21.80806396 31.68807129 22.30362793 32.36450195 22.81420898 C35.35032383 25.05986865 38.34836825 27.26117006 41.4453125 29.3515625 C42.45335937 30.03992188 43.46140625 30.72828125 44.5 31.4375 C45.81484375 32.30181641 45.81484375 32.30181641 47.15625 33.18359375 C49 35 49 35 49.28125 37.72265625 C49.1884375 38.47417969 49.095625 39.22570312 49 40 C43.72932174 37.25008091 39.31477521 33.94744051 34.71484375 30.19140625 C29.26984669 25.79623596 23.61307408 21.66973328 17.98583984 17.51171875 C15.84228052 15.92775467 13.70239481 14.33890978 11.5625 12.75 C10.88815918 12.25467773 10.21381836 11.75935547 9.51904297 11.24902344 C5.69220087 8.40305485 2.2805594 5.46386619 -1 2 C-0.67 1.34 -0.34 0.68 0 0 Z " fill="#383A96" transform="translate(187,70)"/>
<path d="M0 0 C5.60380476 3.57344072 10.85295019 7.41022585 16.0078125 11.6015625 C27.34419371 20.68842681 38.90694052 29.93796035 51 38 C51 39.32 51 40.64 51 42 C46.76654246 40.55537124 43.74777149 38.45581397 40.25 35.6875 C39.09540621 34.78210031 37.94043919 33.87717642 36.78515625 32.97265625 C36.1730127 32.49070801 35.56086914 32.00875977 34.93017578 31.51220703 C31.53789684 28.85450709 28.11103613 26.24221614 24.6875 23.625 C23.98149658 23.08125732 23.27549316 22.53751465 22.5480957 21.97729492 C18.86190147 19.146221 15.14739182 16.37335295 11.359375 13.6796875 C10.61727783 13.14520996 9.87518066 12.61073242 9.1105957 12.06005859 C7.69177301 11.04149023 6.26350204 10.03592051 4.82495117 9.04541016 C2.90234375 7.65625 2.90234375 7.65625 0 5 C-0.43359375 2.15625 -0.43359375 2.15625 0 0 Z " fill="#3A3D97" transform="translate(185,77)"/>
<path d="M0 0 C5.3043741 1.64107382 9.32047568 5.01130615 13.6875 8.3125 C15.38608645 9.5815759 17.08532165 10.84978388 18.78515625 12.1171875 C19.64898926 12.76268555 20.51282227 13.40818359 21.40283203 14.07324219 C25.44521926 17.07216304 29.53499392 20.0040498 33.625 22.9375 C39.51400781 27.17103735 45.34612501 31.45375549 51 36 C50.67 37.32 50.34 38.64 50 40 C48.8984375 39.20442708 47.796875 38.40885417 46.6953125 37.61328125 C45.97545166 37.09338623 45.25559082 36.57349121 44.51391602 36.0378418 C42.90240801 34.87396576 41.29091752 33.71006547 39.67944336 32.54614258 C35.51456266 29.53801622 31.34942975 26.53024078 27.18359375 23.5234375 C26.41394287 22.967771 25.64429199 22.41210449 24.85131836 21.83959961 C23.33292836 20.74360546 21.81421402 19.6480605 20.29516602 18.55297852 C17.02950232 16.1970794 13.76856976 13.83614895 10.53125 11.44140625 C9.5515625 10.71824219 8.571875 9.99507812 7.5625 9.25 C6.32693359 8.32960937 6.32693359 8.32960937 5.06640625 7.390625 C2.95657011 5.83701708 2.95657011 5.83701708 0 5 C0 3.35 0 1.7 0 0 Z " fill="#3D4099" transform="translate(6,120)"/>
<path d="M0 0 C6.54488084 3.96103009 12.70792851 8.21684746 18.72363281 12.94360352 C24.04034506 17.09504104 29.54308385 20.9626085 35.08837891 24.80151367 C39.23833686 27.69038315 43.16397415 30.70425948 47 34 C46.67 34.99 46.34 35.98 46 37 C41.93083794 35.58719871 38.95643858 33.6360688 35.5625 31 C34.49979202 30.18476969 33.43594372 29.37102421 32.37109375 28.55859375 C31.54327393 27.92606689 31.54327393 27.92606689 30.69873047 27.28076172 C27.87879527 25.15466513 25.00290825 23.10904837 22.125 21.0625 C21.54991699 20.64967773 20.97483398 20.23685547 20.38232422 19.81152344 C17.30023212 17.60526843 14.19294198 15.45216434 11.03515625 13.35546875 C10.3911084 12.91904053 9.74706055 12.4826123 9.08349609 12.03295898 C7.85031873 11.19850791 6.60746957 10.37811631 5.35400391 9.57446289 C2.271041 7.46692338 1.09917046 6.3687219 0.11328125 2.703125 C0.07589844 1.81109375 0.03851563 0.9190625 0 0 Z " fill="#393C97" transform="translate(8,130)"/>
<path d="M0 0 C0.33 0.99 0.66 1.98 1 3 C2.051875 2.95875 3.10375 2.9175 4.1875 2.875 C7.74010173 2.99147875 9.84866641 3.47208068 13 5 C12.67 5.66 12.34 6.32 12 7 C10.35 7 8.7 7 7 7 C7.99 7.99 8.98 8.98 10 10 C9.67 10.66 9.34 11.32 9 12 C9.99 12.33 10.98 12.66 12 13 C11.01 13 10.02 13 9 13 C9 15.64 9 18.28 9 21 C9.66 20.67 10.32 20.34 11 20 C11 19.01 11 18.02 11 17 C11.66 17 12.32 17 13 17 C15 20 15 20 14.8125 22.4375 C13.95218569 25.15079897 12.83477535 26.84613329 11 29 C10.34 28.67 9.68 28.34 9 28 C9.33 26.68 9.66 25.36 10 24 C8.68 24 7.36 24 6 24 C6 23.34 6 22.68 6 22 C5.34 22 4.68 22 4 22 C4.33 23.98 4.66 25.96 5 28 C4.34 28.33 3.68 28.66 3 29 C2.30710631 25.27569643 1.88855404 21.78916254 2 18 C2.99 17.67 3.98 17.34 5 17 C4.67 17.99 4.34 18.98 4 20 C4.99 20.33 5.98 20.66 7 21 C6.835 20.236875 6.67 19.47375 6.5 18.6875 C6 16 6 16 6 13 C3.36 13 0.72 13 -2 13 C-2.05391993 11.20866022 -2.09275571 9.41686101 -2.125 7.625 C-2.14820312 6.62726563 -2.17140625 5.62953125 -2.1953125 4.6015625 C-2 2 -2 2 0 0 Z " fill="#DDDDEC" transform="translate(123,134)"/>
<path d="M0 0 C10.56 0 21.12 0 32 0 C32 0.33 32 0.66 32 1 C29.69 1 27.38 1 25 1 C25.66 2.11375 26.32 3.2275 27 4.375 C29 7.75 29 7.75 29 10 C29.66 10.33 30.32 10.66 31 11 C30 12 30 12 26.62109375 12.09765625 C25.22652923 12.09098369 23.83198257 12.07902532 22.4375 12.0625 C21.72658203 12.05798828 21.01566406 12.05347656 20.28320312 12.04882812 C18.52209987 12.03700864 16.76103964 12.01907263 15 12 C18.75 10 18.75 10 21 10 C20.67 7.69 20.34 5.38 20 3 C18.02 3 16.04 3 14 3 C13.34 4.65 12.68 6.3 12 8 C11.34 8 10.68 8 10 8 C9.67 7.34 9.34 6.68 9 6 C8.01 6 7.02 6 6 6 C6 5.01 6 4.02 6 3 C5.34 2.67 4.68 2.34 4 2 C4 4.97 4 7.94 4 11 C5.98 11 7.96 11 10 11 C10 11.33 10 11.66 10 12 C5.05 12 0.1 12 -5 12 C-5 9.69 -5 7.38 -5 5 C-3.2925002 6.28062485 -1.62626404 7.61767557 0 9 C0 9.66 0 10.32 0 11 C0.66 11 1.32 11 2 11 C1.979375 9.72125 1.95875 8.4425 1.9375 7.125 C1.875 3.25 1.875 3.25 3 1 C2.01 0.67 1.02 0.34 0 0 Z " fill="#333694" transform="translate(128,40)"/>
<path d="M0 0 C4.5532521 1.48938153 7.90192775 4.07405953 11.5625 7.0625 C12.80904928 8.06095365 14.05645955 9.05833325 15.3046875 10.0546875 C15.92569336 10.55194336 16.54669922 11.04919922 17.18652344 11.56152344 C29.99991525 22.21412957 29.99991525 22.21412957 44 31 C44 32.65 44 34.3 44 36 C40.59164271 34.45074669 37.78925499 32.45050556 34.8125 30.1875 C34.30130615 29.80005615 33.7901123 29.4126123 33.26342773 29.01342773 C31.50605539 27.67938109 29.75287634 26.33994797 28 25 C26.6302303 23.95570036 25.26043769 22.91143076 23.890625 21.8671875 C15.24273609 15.26784461 6.61737225 8.63912332 -2 2 C-1.34 1.34 -0.68 0.68 0 0 Z " fill="#3E4099" transform="translate(192,64)"/>
<path d="M0 0 C2.97552812 1.39194763 5.52749115 3.01567676 8.16015625 4.9765625 C8.94841797 5.56099121 9.73667969 6.14541992 10.54882812 6.74755859 C11.37833984 7.36711426 12.20785156 7.98666992 13.0625 8.625 C14.78237657 9.90127822 16.50242758 11.17732139 18.22265625 12.453125 C19.04910645 13.06736328 19.87555664 13.68160156 20.72705078 14.31445312 C23.47320521 16.35091394 26.2329741 18.36699862 29 20.375 C29.82886719 20.97699219 30.65773438 21.57898438 31.51171875 22.19921875 C33.30397241 23.49628145 35.09852621 24.79016798 36.89453125 26.08203125 C51.12014919 36.34656682 51.12014919 36.34656682 52 41 C44.80929587 36.67338989 38.09574218 31.91021777 31.41821289 26.8425293 C26.14294259 22.84246262 20.8096065 18.93148123 15.4375 15.0625 C14.70007568 14.53124512 13.96265137 13.99999023 13.20288086 13.45263672 C12.49526611 12.94361816 11.78765137 12.43459961 11.05859375 11.91015625 C10.3816748 11.41918457 9.70475586 10.92821289 9.00732422 10.42236328 C7.6640137 9.47051129 6.30031003 8.54683462 4.91845703 7.65185547 C2.97265625 6.37109375 2.97265625 6.37109375 0 4 C0 2.68 0 1.36 0 0 Z " fill="#41439B" transform="translate(5,110)"/>
<path d="M0 0 C0.66 0 1.32 0 2 0 C1.80859375 1.84765625 1.80859375 1.84765625 1 4 C-1.4687924 5.45863396 -4.00405263 6.46498289 -6.65234375 7.55859375 C-9.68226745 9.41889632 -9.9548804 10.62599411 -11 14 C-11.28861132 16.50772356 -11.48694775 18.93057682 -11.59765625 21.4453125 C-11.63657486 22.18844696 -11.67549347 22.93158142 -11.71559143 23.69723511 C-11.84122966 26.17277938 -11.95253332 28.64871324 -12.0625 31.125 C-12.10324646 31.97739258 -12.14399292 32.82978516 -12.18597412 33.70800781 C-13.31818233 57.45532114 -13.65057887 81.23066009 -14 105 C-14.33 105 -14.66 105 -15 105 C-15.04655889 94.53306631 -15.08198801 84.06615769 -15.10362434 73.59914112 C-15.11401425 68.73768744 -15.12808478 63.87630517 -15.15087891 59.01489258 C-15.17277963 54.31403092 -15.18460457 49.6132375 -15.18975449 44.91232872 C-15.19341957 43.12839371 -15.20057551 41.34446198 -15.21146011 39.56055641 C-15.36431309 13.44514193 -15.36431309 13.44514193 -10.8125 6.8125 C-7.62959141 4.76129224 -4.63648038 3.97905241 -1 3 C-0.67 2.01 -0.34 1.02 0 0 Z " fill="#5052A3" transform="translate(189,59)"/>
<path d="M0 0 C2.9149939 1.36604776 5.41298344 2.93824186 7.984375 4.87109375 C8.7477417 5.44069824 9.5111084 6.01030273 10.29760742 6.59716797 C11.51154175 7.50813232 11.51154175 7.50813232 12.75 8.4375 C21.35679766 14.84453302 30.11106 20.99230262 39 27 C38.34 28.32 37.68 29.64 37 31 C30.66174008 26.85979971 24.5139897 22.51424539 18.4375 18 C17.23963867 17.11441406 17.23963867 17.11441406 16.01757812 16.2109375 C14.44021839 15.04366558 12.86511868 13.87333241 11.29248047 12.69970703 C9.75922565 11.56291044 8.21641618 10.43889304 6.66455078 9.32763672 C5.94122559 8.80443848 5.21790039 8.28124023 4.47265625 7.7421875 C3.8269165 7.28183105 3.18117676 6.82147461 2.51586914 6.34716797 C1 5 1 5 0 2.125 C0 1.42375 0 0.7225 0 0 Z " fill="#3E4099" transform="translate(11,142)"/>
<path d="M0 0 C39.93 0 79.86 0 121 0 C121 0.33 121 0.66 121 1 C83.38 1 45.76 1 7 1 C7 1.66 7 2.32 7 3 C18.88 3 30.76 3 43 3 C43 3.33 43 3.66 43 4 C37.84052654 4.07440448 32.68136849 4.12872191 27.52148438 4.16479492 C25.76784827 4.17983995 24.01424953 4.20028104 22.26074219 4.22631836 C19.73362991 4.26289121 17.20701704 4.2797692 14.6796875 4.29296875 C13.51214432 4.31619453 13.51214432 4.31619453 12.3210144 4.33988953 C7.4585311 4.34137782 4.27235786 3.57589309 0 1 C0 0.67 0 0.34 0 0 Z " fill="#4C4DA0" transform="translate(62,54)"/>
<path d="M0 0 C1.15242187 0.00902344 2.30484375 0.01804688 3.4921875 0.02734375 C4.36101562 0.03894531 5.22984375 0.05054688 6.125 0.0625 C6.125 3.0325 6.125 6.0025 6.125 9.0625 C2.48741652 10.27502783 0.27379102 9.83154873 -3.5 9.25 C-4.66789063 9.07855469 -5.83578125 8.90710938 -7.0390625 8.73046875 C-7.97492188 8.51003906 -8.91078125 8.28960937 -9.875 8.0625 C-10.205 7.4025 -10.535 6.7425 -10.875 6.0625 C-11.865 6.5575 -11.865 6.5575 -12.875 7.0625 C-12.875 5.0825 -12.875 3.1025 -12.875 1.0625 C-8.52167264 0.22226812 -4.43057481 -0.04520995 0 0 Z " fill="#333694" transform="translate(133.875,128.9375)"/>
<path d="M0 0 C0.33 2.97 0.66 5.94 1 9 C0.34 9 -0.32 9 -1 9 C-1.28875 8.030625 -1.5775 7.06125 -1.875 6.0625 C-2.64214682 2.89335797 -2.64214682 2.89335797 -5 2 C-5 1.34 -5 0.68 -5 0 C-5.66 0 -6.32 0 -7 0 C-6.01 2.97 -5.02 5.94 -4 9 C-4.66 9 -5.32 9 -6 9 C-6 8.34 -6 7.68 -6 7 C-6.99 7 -7.98 7 -9 7 C-9 7.99 -9 8.98 -9 10 C-9.66 10 -10.32 10 -11 10 C-9.125 2.25 -9.125 2.25 -8 0 C-8.66 0 -9.32 0 -10 0 C-10 0.66 -10 1.32 -10 2 C-10.66 2 -11.32 2 -12 2 C-12.2165625 3.175625 -12.2165625 3.175625 -12.4375 4.375 C-13 7 -13 7 -14 9 C-14.66 9 -15.32 9 -16 9 C-17.625 6.5 -17.625 6.5 -19 4 C-18.67 5.65 -18.34 7.3 -18 9 C-18.66 9 -19.32 9 -20 9 C-24 2.25 -24 2.25 -24 0 C-16.16509732 -1.45765631 -7.75214251 -1.93803563 0 0 Z " fill="#9899C8" transform="translate(177,41)"/>
<path d="M0 0 C0.66 0 1.32 0 2 0 C2.16774403 2.77077198 2.33423936 5.54160927 2.5 8.3125 C2.54769531 9.09818359 2.59539062 9.88386719 2.64453125 10.69335938 C2.68964844 11.45068359 2.73476562 12.20800781 2.78125 12.98828125 C2.82314453 13.68477783 2.86503906 14.38127441 2.90820312 15.09887695 C2.98700971 16.73096966 3 18.36600579 3 20 C4.14702085 21.56141793 4.14702085 21.56141793 5.73828125 23.03125 C6.59776367 23.87623047 6.59776367 23.87623047 7.47460938 24.73828125 C8.38436523 25.61033203 8.38436523 25.61033203 9.3125 26.5 C9.90740234 27.08136719 10.50230469 27.66273438 11.11523438 28.26171875 C12.22880836 29.34916418 13.34543545 30.43349817 14.46606445 31.51367188 C15.99341961 32.99362384 17.49997913 34.49239617 19 36 C15.18539766 35.44654207 13.57761202 33.84652236 11 31.0625 C8.2814184 28.13683894 6.68754558 26.84377279 3 25 C6.3 28.3 9.6 31.6 13 35 C9.41087588 35 8.89142971 34.33563446 6.3125 32 C5.68988281 31.443125 5.06726563 30.88625 4.42578125 30.3125 C3.95527344 29.879375 3.48476562 29.44625 3 29 C4.65 31.31 6.3 33.62 8 36 C4 35 4 35 0 33 C0 22.11 0 11.22 0 0 Z " fill="#8786BE" transform="translate(99,128)"/>
<path d="M0 0 C3.07569019 -0.29834737 4.60985843 -0.24814897 7.25390625 1.43359375 C8.01574219 2.09488281 8.77757812 2.75617187 9.5625 3.4375 C18.6743081 11.10277477 28.3514634 18.0295021 38 25 C37.67 26.32 37.34 27.64 37 29 C30.55585002 24.3767421 24.20298538 19.66039096 17.93579102 14.80126953 C15.15825556 12.65041111 12.36837587 10.52131334 9.54296875 8.43359375 C8.98988037 8.02423584 8.43679199 7.61487793 7.86694336 7.19311523 C6.33549559 6.06308576 4.80065771 4.93765487 3.265625 3.8125 C1 2 1 2 0 0 Z " fill="#3F419A" transform="translate(197,61)"/>
<path d="M0 0 C2.97 0 5.94 0 9 0 C9 0.66 9 1.32 9 2 C8.01 2 7.02 2 6 2 C6 2.66 6 3.32 6 4 C6.66 4 7.32 4 8 4 C8 6.64 8 9.28 8 12 C1.73 12 -4.54 12 -11 12 C-10.01 9.03 -9.02 6.06 -8 3 C-7.34 3 -6.68 3 -6 3 C-6 2.34 -6 1.68 -6 1 C-5.34 1 -4.68 1 -4 1 C-4.99 4.3 -5.98 7.6 -7 11 C-6.34 11 -5.68 11 -5 11 C-5 10.01 -5 9.02 -5 8 C-4.01 8 -3.02 8 -2 8 C-2 8.66 -2 9.32 -2 10 C-1.34 10 -0.68 10 0 10 C-0.99 7.03 -1.98 4.06 -3 1 C-2.34 1 -1.68 1 -1 1 C-1 1.66 -1 2.32 -1 3 C0.32 3.66 1.64 4.32 3 5 C3 6.65 3 8.3 3 10 C3.66 10 4.32 10 5 10 C4.67 7.03 4.34 4.06 4 1 C2.68 0.67 1.36 0.34 0 0 Z " fill="#2E3191" transform="translate(173,40)"/>
<path d="M0 0 C1.98 0 3.96 0 6 0 C4.68 0.33 3.36 0.66 2 1 C2 1.99 2 2.98 2 4 C3.32 3.67 4.64 3.34 6 3 C6 3.99 6 4.98 6 6 C6.66 6 7.32 6 8 6 C8.144375 5.195625 8.28875 4.39125 8.4375 3.5625 C9 1 9 1 10 0 C11.99958364 -0.04080783 14.00045254 -0.04254356 16 0 C18.125 4.625 18.125 4.625 17 8 C11.4918762 10.89901252 5.93183863 9.7810606 0 9 C0 6.03 0 3.06 0 0 Z " fill="#7A7CB9" transform="translate(132,42)"/>
<path d="M0 0 C1.134375 0.020625 2.26875 0.04125 3.4375 0.0625 C3.7675 2.3725 4.0975 4.6825 4.4375 7.0625 C3.4475 7.5575 3.4475 7.5575 2.4375 8.0625 C2.1075 9.0525 1.7775 10.0425 1.4375 11.0625 C-2.72388263 11.14409574 -6.5097484 11.04498524 -10.5625 10.0625 C-10.5625 7.0925 -10.5625 4.1225 -10.5625 1.0625 C-9.1084375 1.0934375 -9.1084375 1.0934375 -7.625 1.125 C-3.88736045 1.04872164 -3.92115709 0.06879223 0 0 Z " fill="#5C5FA9" transform="translate(95.5625,40.9375)"/>
<path d="M0 0 C5.70468075 5.40321388 6.12656594 10.18557424 6.375 17.8125 C6.20525626 27.81677166 2.80506016 35.67522164 -4 43 C-7.38428188 46.13981908 -9.77218242 47.88838022 -14.4375 48.3125 C-15.283125 48.209375 -16.12875 48.10625 -17 48 C-15 46 -15 46 -11.75 44.3125 C-5.25651347 40.66750756 -1.22204976 34.56343469 2 28 C4.58074857 18.53725523 2.96955445 9.13845031 0 0 Z " fill="#46489D" transform="translate(75,130)"/>
<path d="M0 0 C5.13155278 3.34702241 10.07098638 6.92511504 15 10.5625 C15.8350708 11.17802734 16.6701416 11.79355469 17.53051758 12.42773438 C23.78365818 17.05641065 29.9273369 21.80698875 36.01953125 26.64453125 C39.63108604 29.49874821 43.29993796 32.26195409 47 35 C46.67 35.99 46.34 36.98 46 38 C45.32195312 37.443125 44.64390625 36.88625 43.9453125 36.3125 C41.98901841 34.70844723 40.03052956 33.10706888 38.0703125 31.5078125 C36.18463825 29.96760529 34.30337753 28.42195157 32.4296875 26.8671875 C28.28425984 23.46820341 24.1270413 20.3789191 19.5625 17.5625 C12.62845479 13.27187459 5.39918793 8.18064934 0 2 C0 1.34 0 0.68 0 0 Z " fill="#4F51A2" transform="translate(188,89)"/>
<path d="M0 0 C3.98504203 2.85223821 7.78634955 5.64496787 11.125 9.25 C14.08182663 12.07826895 16.06788503 13.06378215 20 14 C20.33 13.67 20.66 13.34 21 13 C24.3663978 12.76277062 27.72552761 12.60391333 31.09765625 12.48242188 C34.86746432 12.30045482 36.79364292 12.13757139 40 10 C39.49609375 11.96875 39.49609375 11.96875 38 14 C34.55667259 14.44961838 31.31429134 14.5066408 27.85351562 14.48828125 C23.43800215 14.51325378 23.43800215 14.51325378 19.99609375 17.03125 C19.66738281 17.6809375 19.33867188 18.330625 19 19 C18.7525 18.02546875 18.7525 18.02546875 18.5 17.03125 C17.7575 16.02578125 17.7575 16.02578125 17 15 C14.23184203 14.64204854 11.76804208 14.4854823 9 14.5 C6.23195792 14.5145177 3.76815797 14.35795146 1 14 C-0.5 11.96875 -0.5 11.96875 -1 10 C0.98 10.66 2.96 11.32 5 12 C3.35 10.35 1.7 8.7 0 7 C0.33 6.34 0.66 5.68 1 5 C3.64 7.31 6.28 9.62 9 12 C6.87509336 9.24549139 4.7422191 6.74807776 2.25 4.3125 C0 2 0 2 0 0 Z " fill="#D4D3E8" transform="translate(101,151)"/>
<path d="M0 0 C0.5775 0.37125 1.155 0.7425 1.75 1.125 C4 2.29166667 4 2.29166667 6.25 1.125 C6.8275 0.75375 7.405 0.3825 8 0 C8 0.66 8 1.32 8 2 C7.01 2.495 7.01 2.495 6 3 C6 3.66 6 4.32 6 5 C6.66 5.33 7.32 5.66 8 6 C8.33 6.33 8.66 6.66 9 7 C9.66 6.67 10.32 6.34 11 6 C11 7.98 11 9.96 11 12 C11.66 12.33 12.32 12.66 13 13 C12.67 13.66 12.34 14.32 12 15 C12.33 15.66 12.66 16.32 13 17 C12.67 17.99 12.34 18.98 12 20 C10.35 18.35 8.7 16.7 7 15 C7 15.66 7 16.32 7 17 C8.95927063 18.7143618 10.95880212 20.38405168 13 22 C12.67 22.99 12.34 23.98 12 25 C8.7 21.7 5.4 18.4 2 15 C5 13 5 13 7 12 C6.01 11.67 5.02 11.34 4 11 C4.1546875 9.9171875 4.1546875 9.9171875 4.3125 8.8125 C3.87550935 4.87958411 1.89917803 3.53678077 -1 1 C-0.67 0.67 -0.34 0.34 0 0 Z " fill="#7F7FBB" transform="translate(107,133)"/>
<path d="M0 0 C8.415 1.485 8.415 1.485 17 3 C17 3.99 17 4.98 17 6 C13.94152152 6.54372951 11.11227195 7 8 7 C8 7.33 8 7.66 8 8 C8 8.66 8 9.32 8 10 C5.03 9.505 5.03 9.505 2 9 C1.67 10.32 1.34 11.64 1 13 C0.67 13 0.34 13 0 13 C0 8.71 0 4.42 0 0 Z " fill="#DDDDED" transform="translate(101,128)"/>
<path d="M0 0 C9.33333333 0 9.33333333 0 12 1 C13.25 3.0625 13.25 3.0625 14 5 C14.66 5 15.32 5 16 5 C15.67 5.99 15.34 6.98 15 8 C13.68 6.68 12.36 5.36 11 4 C10.67 5.98 10.34 7.96 10 10 C6.7 9.67 3.4 9.34 0 9 C0 6.03 0 3.06 0 0 Z " fill="#7576B6" transform="translate(113,42)"/>
<path d="M0 0 C1.65 0 3.3 0 5 0 C5 2.64 5 5.28 5 8 C5.99 8 6.98 8 8 8 C8 6.68 8 5.36 8 4 C8.99 4 9.98 4 11 4 C11 5.32 11 6.64 11 8 C11.99 8 12.98 8 14 8 C14 5.36 14 2.72 14 0 C14.99 0 15.98 0 17 0 C17.125 5.75 17.125 5.75 16 8 C17.65 8 19.3 8 21 8 C21 8.33 21 8.66 21 9 C14.07 9 7.14 9 0 9 C0 6.03 0 3.06 0 0 Z " fill="#2E3191" transform="translate(69,43)"/>
<path d="M0 0 C9.57142857 -0.28571429 9.57142857 -0.28571429 14 2 C13.67 2.66 13.34 3.32 13 4 C11.35 4 9.7 4 8 4 C8.99 4.99 9.98 5.98 11 7 C10.01 8.32 9.02 9.64 8 11 C8 10.34 8 9.68 8 9 C5.36 9 2.72 9 0 9 C0 6.03 0 3.06 0 0 Z " fill="#FAFAFC" transform="translate(122,137)"/>
<path d="M0 0 C4.33333333 0 8.66666667 0 13 0 C12.01 0.33 11.02 0.66 10 1 C10 3.64 10 6.28 10 9 C7.36 9 4.72 9 2 9 C1.01 6.36 0.02 3.72 -1 1 C-0.67 0.67 -0.34 0.34 0 0 Z " fill="#6C6EB2" transform="translate(99,42)"/>
<path d="M0 0 C0.75 2.25 0.75 2.25 1 5 C-0.9375 7.3125 -0.9375 7.3125 -3 9 C-5.4375 8.3125 -5.4375 8.3125 -8 7 C-9 4.5625 -9 4.5625 -9 2 C-6.73607469 -1.99516231 -4.01344788 -0.98106504 0 0 Z " fill="#D3D3E7" transform="translate(184,26)"/>
<path d="M0 0 C1.65 0 3.3 0 5 0 C5.125 5.75 5.125 5.75 4 8 C5.98 8 7.96 8 10 8 C10 8.33 10 8.66 10 9 C2.74 9 -4.52 9 -12 9 C-11.67 7.68 -11.34 6.36 -11 5 C-10.01 5.33 -9.02 5.66 -8 6 C-8 6.66 -8 7.32 -8 8 C-7.4225 7.814375 -6.845 7.62875 -6.25 7.4375 C-3.79307475 6.95976454 -2.35602466 7.24270636 0 8 C0 5.36 0 2.72 0 0 Z " fill="#333593" transform="translate(109,43)"/>
<path d="M0 0 C4.73461777 2.23032416 8.77670907 5.31210211 13 8.375 C13.80695312 8.9525 14.61390625 9.53 15.4453125 10.125 C19.2357555 12.86462712 22.84329201 15.5173276 26 19 C22.31806345 18.44790984 19.91784749 17.54870481 16.8984375 15.3828125 C16.16109375 14.85816406 15.42375 14.33351562 14.6640625 13.79296875 C13.90867187 13.24253906 13.15328125 12.69210938 12.375 12.125 C11.611875 11.58230469 10.84875 11.03960937 10.0625 10.48046875 C1.4283664 4.2850992 1.4283664 4.2850992 0 0 Z " fill="#4A4C9F" transform="translate(17,156)"/>
<path d="M0 0 C9.41002278 0.96355353 9.41002278 0.96355353 14 2 C14.33 3.32 14.66 4.64 15 6 C11.32192463 7.22602512 9.11756073 6.70295577 5.3125 6.0625 C4.13300781 5.86785156 2.95351562 5.67320312 1.73828125 5.47265625 C0.38283203 5.23869141 0.38283203 5.23869141 -1 5 C-0.67 3.35 -0.34 1.7 0 0 Z " fill="#7B7CB9" transform="translate(125,132)"/>
<path d="M0 0 C1.125 5.625 1.125 5.625 0 9 C-2.94389782 10.17755913 -3.89953913 10.03348696 -7 9 C-7.33 6.69 -7.66 4.38 -8 2 C-4.77208445 -0.1519437 -3.71599191 -0.20086443 0 0 Z " fill="#8687BF" transform="translate(124,6)"/>
<path d="M0 0 C1.32 0 2.64 0 4 0 C4 2.64 4 5.28 4 8 C2.54077307 7.88590407 1.08259402 7.75834456 -0.375 7.625 C-1.59316406 7.52058594 -1.59316406 7.52058594 -2.8359375 7.4140625 C-5 7 -5 7 -7 5 C-8.31747324 4.30251417 -9.64914193 3.63040043 -11 3 C-10.37351562 2.95101562 -9.74703125 2.90203125 -9.1015625 2.8515625 C-8.28429687 2.77679688 -7.46703125 2.70203125 -6.625 2.625 C-5.81289062 2.55539063 -5.00078125 2.48578125 -4.1640625 2.4140625 C-1.79665809 2.17107412 -1.79665809 2.17107412 0 0 Z " fill="#F1F0F7" transform="translate(137,138)"/>
<path d="M0 0 C2.97 0 5.94 0 9 0 C9 0.66 9 1.32 9 2 C8.01 2 7.02 2 6 2 C6.33 2.99 6.66 3.98 7 5 C6.72428861 7.00875442 6.39764263 9.01178687 6 11 C3.36 11 0.72 11 -2 11 C-1.34 10.67 -0.68 10.34 0 10 C-0.99 7.03 -1.98 4.06 -3 1 C-2.34 1 -1.68 1 -1 1 C-1 1.66 -1 2.32 -1 3 C0.32 3.66 1.64 4.32 3 5 C3 6.65 3 8.3 3 10 C3.66 10 4.32 10 5 10 C4.67 7.03 4.34 4.06 4 1 C2.68 0.67 1.36 0.34 0 0 Z " fill="#383A96" transform="translate(173,40)"/>
<path d="M0 0 C0.66 0 1.32 0 2 0 C5.13391701 8.14818424 5.16206723 16.37442193 5 25 C3.68 25.33 2.36 25.66 1 26 C0.67 25.34 0.34 24.68 0 24 C0.66 23.67 1.32 23.34 2 23 C1.43434519 15.32153678 0.8123221 7.65656792 0 0 Z " fill="#5354A4" transform="translate(73,60)"/>
<path d="M0 0 C0.99 0 1.98 0 3 0 C3 0.99 3 1.98 3 3 C3.99 3 4.98 3 6 3 C6 2.01 6 1.02 6 0 C6.99 0 7.98 0 9 0 C9 2.97 9 5.94 9 9 C8.01 9 7.02 9 6 9 C6 7.68 6 6.36 6 5 C5.01 5 4.02 5 3 5 C3 6.32 3 7.64 3 9 C2.01 9 1.02 9 0 9 C0 6.03 0 3.06 0 0 Z " fill="#B3B4D7" transform="translate(74,42)"/>
<path d="M0 0 C2.64 0 5.28 0 8 0 C8.33 2.64 8.66 5.28 9 8 C7.68 7.67 6.36 7.34 5 7 C5.66 6.67 6.32 6.34 7 6 C7 5.34 7 4.68 7 4 C6.01 4.495 6.01 4.495 5 5 C5 6.98 5 8.96 5 11 C4.01 11.495 4.01 11.495 3 12 C0.60926555 8.17482487 0.44033448 4.40334476 0 0 Z " fill="#494B9F" transform="translate(121,147)"/>
<path d="M0 0 C0.66 0 1.32 0 2 0 C1.80859375 1.84765625 1.80859375 1.84765625 1 4 C-1.4687924 5.45863396 -4.00405263 6.46498289 -6.65234375 7.55859375 C-9.68412456 9.42003655 -10.12449199 10.57368758 -11 14 C-11.28867792 16.62805842 -11.50404038 19.17910831 -11.625 21.8125 C-11.66367188 22.50537109 -11.70234375 23.19824219 -11.7421875 23.91210938 C-11.83573568 25.60767015 -11.91892364 27.30379712 -12 29 C-12.33 29 -12.66 29 -13 29 C-14.79295834 12.21531772 -14.79295834 12.21531772 -11 7 C-7.5 5.125 -7.5 5.125 -4 4 C-3.01 3.67 -2.02 3.34 -1 3 C-0.67 2.01 -0.34 1.02 0 0 Z " fill="#5D5FA9" transform="translate(189,59)"/>
<path d="M0 0 C4.29 0 8.58 0 13 0 C13 0.99 13 1.98 13 3 C13.66 3 14.32 3 15 3 C15.33 2.01 15.66 1.02 16 0 C16.33 1.32 16.66 2.64 17 4 C11.555 4.495 11.555 4.495 6 5 C5.67 4.34 5.34 3.68 5 3 C3.35 3.33 1.7 3.66 0 4 C0 2.68 0 1.36 0 0 Z " fill="#9898C8" transform="translate(117,209)"/>
<path d="M0 0 C0.66 0 1.32 0 2 0 C2 0.66 2 1.32 2 2 C2.99 2.33 3.98 2.66 5 3 C4.67 3.66 4.34 4.32 4 5 C4.66 5.33 5.32 5.66 6 6 C7.125 8.0625 7.125 8.0625 8 10 C5.03 9.505 5.03 9.505 2 9 C1.67 10.32 1.34 11.64 1 13 C0.67 13 0.34 13 0 13 C0 8.71 0 4.42 0 0 Z " fill="#F7F7FA" transform="translate(101,128)"/>
<path d="M0 0 C0.99 0.495 0.99 0.495 2 1 C2 1.66 2 2.32 2 3 C4.97 3 7.94 3 11 3 C10.01 3.33 9.02 3.66 8 4 C8 6.31 8 8.62 8 11 C7.34 11 6.68 11 6 11 C6 8.69 6 6.38 6 4 C5.01 4.33 4.02 4.66 3 5 C2.95101562 5.63808594 2.90203125 6.27617188 2.8515625 6.93359375 C2.77679688 7.75988281 2.70203125 8.58617187 2.625 9.4375 C2.52058594 10.67306641 2.52058594 10.67306641 2.4140625 11.93359375 C2.27742188 12.61550781 2.14078125 13.29742187 2 14 C1.01 14.495 1.01 14.495 0 15 C0 10.05 0 5.1 0 0 Z " fill="#B1B2D5" transform="translate(61,39)"/>
<path d="M0 0 C0.5775 0.37125 1.155 0.7425 1.75 1.125 C4 2.29166667 4 2.29166667 6.25 1.125 C6.8275 0.75375 7.405 0.3825 8 0 C8 0.66 8 1.32 8 2 C7.01 2.495 7.01 2.495 6 3 C6 3.66 6 4.32 6 5 C6.66 5.33 7.32 5.66 8 6 C8.33 6.33 8.66 6.66 9 7 C9.66 6.67 10.32 6.34 11 6 C11 7.98 11 9.96 11 12 C10.67 11.34 10.34 10.68 10 10 C9.67 10.66 9.34 11.32 9 12 C7.35 11.67 5.7 11.34 4 11 C4.1546875 9.9171875 4.1546875 9.9171875 4.3125 8.8125 C3.87550935 4.87958411 1.89917803 3.53678077 -1 1 C-0.67 0.67 -0.34 0.34 0 0 Z " fill="#5B5CA8" transform="translate(107,133)"/>
<path d="M0 0 C0.66 0 1.32 0 2 0 C2 2.64 2 5.28 2 8 C3.98 8 5.96 8 8 8 C8 8.33 8 8.66 8 9 C3.05 9 -1.9 9 -7 9 C-7 6.69 -7 4.38 -7 2 C-5.2925002 3.28062485 -3.62626404 4.61767557 -2 6 C-2 6.66 -2 7.32 -2 8 C-1.34 8 -0.68 8 0 8 C0 5.36 0 2.72 0 0 Z " fill="#303392" transform="translate(130,43)"/>
<path d="M0 0 C11.50266602 7.39457101 11.50266602 7.39457101 12.66796875 11.15625 C12.77753906 11.7646875 12.88710938 12.373125 13 13 C11.2458877 11.92333797 9.49687413 10.83836661 7.75 9.75 C6.77546875 9.14671875 5.8009375 8.5434375 4.796875 7.921875 C2.20294755 6.13945558 0.13622381 4.29898372 -2 2 C-1.34 2 -0.68 2 0 2 C0 1.34 0 0.68 0 0 Z " fill="#47499E" transform="translate(44,138)"/>
<path d="M0 0 C6.4705949 1.23905009 11.36939745 4.28990212 16 9 C16.7578125 11.2265625 16.7578125 11.2265625 17 13 C4.91349125 5.11019567 4.91349125 5.11019567 0 1 C0 0.67 0 0.34 0 0 Z " fill="#42449B" transform="translate(207,60)"/>
<path d="M0 0 C1.32 0.66 2.64 1.32 4 2 C3.01 3.485 3.01 3.485 2 5 C3.65 5 5.3 5 7 5 C7 4.01 7 3.02 7 2 C7.99 2.33 8.98 2.66 10 3 C9.34 5.31 8.68 7.62 8 10 C7.34 10 6.68 10 6 10 C6 8.68 6 7.36 6 6 C4.68 6 3.36 6 2 6 C2.33 7.32 2.66 8.64 3 10 C1.68 10 0.36 10 -1 10 C-0.67 6.7 -0.34 3.4 0 0 Z " fill="#D4D4E8" transform="translate(129,6)"/>
<path d="M0 0 C2.4375 0.8125 2.4375 0.8125 5 2 C5.33 2.99 5.66 3.98 6 5 C6.99 4.67 7.98 4.34 9 4 C9.66 4.33 10.32 4.66 11 5 C11 6.32 11 7.64 11 9 C9.35 9 7.7 9 6 9 C6 8.01 6 7.02 6 6 C5.01 6.33 4.02 6.66 3 7 C2.67 6.01 2.34 5.02 2 4 C1.01 4.495 1.01 4.495 0 5 C0 3.35 0 1.7 0 0 Z " fill="#7576B6" transform="translate(62,190)"/>
<path d="M0 0 C0.33 0.99 0.66 1.98 1 3 C1.66 3.33 2.32 3.66 3 4 C2.01 4 1.02 4 0 4 C-0.33 6.64 -0.66 9.28 -1 12 C0.27875 12.020625 1.5575 12.04125 2.875 12.0625 C3.59429687 12.07410156 4.31359375 12.08570313 5.0546875 12.09765625 C7.08185404 12.12649242 7.08185404 12.12649242 9 11 C9.99 11.66 10.98 12.32 12 13 C11.01 13 10.02 13 9 13 C9 15.64 9 18.28 9 21 C7.0549 18.08235 6.54723683 16.37462715 6 13 C3.36 13 0.72 13 -2 13 C-2.05391993 11.20866022 -2.09275571 9.41686101 -2.125 7.625 C-2.14820312 6.62726563 -2.17140625 5.62953125 -2.1953125 4.6015625 C-2 2 -2 2 0 0 Z " fill="#B1B1D5" transform="translate(123,134)"/>
<path d="M0 0 C1.9375 0.9375 1.9375 0.9375 3.0625 3.375 C3.35125 4.220625 3.64 5.06625 3.9375 5.9375 C4.5975 6.5975 5.2575 7.2575 5.9375 7.9375 C2.9675 7.4425 2.9675 7.4425 -0.0625 6.9375 C-0.0625 7.9275 -0.0625 8.9175 -0.0625 9.9375 C-0.7225 9.9375 -1.3825 9.9375 -2.0625 9.9375 C-3.0525 7.2975 -4.0425 4.6575 -5.0625 1.9375 C-2.0625 -0.0625 -2.0625 -0.0625 0 0 Z " fill="#BBBBDB" transform="translate(85.0625,12.0625)"/>
<path d="M0 0 C1.65 0.33 3.3 0.66 5 1 C5 1.99 5 2.98 5 4 C6.76248102 6.12708293 6.76248102 6.12708293 9 8.1875 C10.11375 9.26064453 10.11375 9.26064453 11.25 10.35546875 C11.8275 10.89816406 12.405 11.44085938 13 12 C12.67 12.99 12.34 13.98 12 15 C7.71 10.71 3.42 6.42 -1 2 C-0.67 1.34 -0.34 0.68 0 0 Z " fill="#E9E9F3" transform="translate(106,145)"/>
<path d="M0 0 C4.026627 2.61186616 7.96091884 5.34726498 11.875 8.125 C13.32519531 9.14980469 13.32519531 9.14980469 14.8046875 10.1953125 C15.89136719 11.08863281 15.89136719 11.08863281 17 12 C17 12.66 17 13.32 17 14 C13.13515355 13.40816737 10.91765306 11.57924369 7.9375 9.125 C7.08027344 8.42632812 6.22304687 7.72765625 5.33984375 7.0078125 C1.4707829 3.68778366 1.4707829 3.68778366 0 2 C0 1.34 0 0.68 0 0 Z " fill="#3F419A" transform="translate(188,89)"/>
<path d="M0 0 C6.625 -0.125 6.625 -0.125 10 1 C9.67 4.3 9.34 7.6 9 11 C8.34 10.67 7.68 10.34 7 10 C7.33 9.01 7.66 8.02 8 7 C7.34 7 6.68 7 6 7 C5.525625 6.360625 5.05125 5.72125 4.5625 5.0625 C3.0908635 2.71627037 3.0908635 2.71627037 0 2 C0 1.34 0 0.68 0 0 Z " fill="#4E50A2" transform="translate(121,40)"/>
<path d="M0 0 C0.144375 1.11375 0.28875 2.2275 0.4375 3.375 C0.78372035 6.82142047 0.78372035 6.82142047 2 9 C0.68 9.33 -0.64 9.66 -2 10 C-2 8.68 -2 7.36 -2 6 C-3.32 6 -4.64 6 -6 6 C-5.67 7.32 -5.34 8.64 -5 10 C-5.66 10 -6.32 10 -7 10 C-7.66 7.36 -8.32 4.72 -9 2 C-8.01 2 -7.02 2 -6 2 C-6 2.99 -6 3.98 -6 5 C-4.68 5 -3.36 5 -2 5 C-2 4.01 -2 3.02 -2 2 C-2.66 1.67 -3.32 1.34 -4 1 C-1 0 -1 0 0 0 Z " fill="#CCCCE3" transform="translate(105,7)"/>
<path d="M0 0 C2.2468898 1.1234449 3.06302028 2.17906996 4.625 4.125 C8.03917683 8.20680052 11.92361416 11.59611436 16 15 C15.67 15.99 15.34 16.98 15 18 C14.27554688 17.26394531 13.55109375 16.52789062 12.8046875 15.76953125 C5.69064086 8.56983689 5.69064086 8.56983689 -2 2 C-1.34 1.34 -0.68 0.68 0 0 Z " fill="#4E4FA1" transform="translate(104,145)"/>
<path d="M0 0 C2.97 0.495 2.97 0.495 6 1 C6.042721 2.66611905 6.04063832 4.33382885 6 6 C5 7 5 7 2.4375 7.0625 C1.2309375 7.0315625 1.2309375 7.0315625 0 7 C-0.93423645 3.98968256 -1.04449911 3.13349732 0 0 Z " fill="#7173B4" transform="translate(103,137)"/>
<path d="M0 0 C0.66 0.66 1.32 1.32 2 2 C2.99 1.67 3.98 1.34 5 1 C5 1.99 5 2.98 5 4 C3.02 4.66 1.04 5.32 -1 6 C-1 5.01 -1 4.02 -1 3 C-1.66 3 -2.32 3 -3 3 C-2.67 3.99 -2.34 4.98 -2 6 C-2.639375 6.12375 -3.27875 6.2475 -3.9375 6.375 C-4.9584375 6.684375 -4.9584375 6.684375 -6 7 C-6.33 7.66 -6.66 8.32 -7 9 C-7.33 7.35 -7.66 5.7 -8 4 C-4.91190305 2.23537317 -3.76687864 2 0 2 C0 1.34 0 0.68 0 0 Z " fill="#A0A0CC" transform="translate(173,196)"/>
<path d="M0 0 C0 0.99 0 1.98 0 3 C-2.18376725 5.18376725 -7.99534251 4.30090522 -11.09765625 4.34179688 C-15.54496091 4.47944828 -15.54496091 4.47944828 -19.0078125 7.04296875 C-19.33523437 7.68878906 -19.66265625 8.33460938 -20 9 C-20.268125 8.38125 -20.53625 7.7625 -20.8125 7.125 C-21.95556848 4.7004767 -21.95556848 4.7004767 -25 3 C-22.66666667 3 -20.33333333 3 -18 3 C-15.33167148 2.89073655 -12.66670956 2.76486239 -10 2.625 C-9.26265625 2.5940625 -8.5253125 2.563125 -7.765625 2.53125 C-3.4191818 2.43365107 -3.4191818 2.43365107 0 0 Z " fill="#D7D7E9" transform="translate(140,161)"/>
<path d="M0 0 C4.60139641 1.48868707 7.50227094 3.74629855 11 7 C11 7.66 11 8.32 11 9 C5.64847115 8.67566492 2.71719957 5.50295176 -1 2 C-0.67 1.34 -0.34 0.68 0 0 Z " fill="#3A3C97" transform="translate(33,131)"/>
<path d="M0 0 C0.66 0 1.32 0 2 0 C1.67 0.99 1.34 1.98 1 3 C1.99 3.33 2.98 3.66 4 4 C3.67 2.68 3.34 1.36 3 0 C3.66 0.33 4.32 0.66 5 1 C5.625 4.0625 5.625 4.0625 6 7 C5.01 7 4.02 7 3 7 C3 6.34 3 5.68 3 5 C2.34 5 1.68 5 1 5 C1.33 6.98 1.66 8.96 2 11 C1.01 11.495 1.01 11.495 0 12 C-0.69071899 8.28738544 -1.21604245 4.78074281 -1 1 C-0.67 0.67 -0.34 0.34 0 0 Z " fill="#E5E5F1" transform="translate(126,151)"/>
<path d="M0 0 C3.99246719 1.59509919 6.63200086 4.40417633 9.5625 7.4375 C10.04396484 7.92798828 10.52542969 8.41847656 11.02148438 8.92382812 C12.35116691 10.27911665 13.67577222 11.63938123 15 13 C15.99787912 14.00211639 16.99662735 15.00338407 18 16 C14.21270207 15.44204986 12.58053171 13.87689514 10 11.125 C7.98468929 8.99160468 6.12808244 7.09294872 3.75 5.3671875 C3.1725 4.91601562 2.595 4.46484375 2 4 C2 3.34 2 2.68 2 2 C1.34 2 0.68 2 0 2 C0 1.34 0 0.68 0 0 Z " fill="#43459C" transform="translate(100,148)"/>
<path d="M0 0 C1.32 0.66 2.64 1.32 4 2 C4.33 1.34 4.66 0.68 5 0 C6.32 0.66 7.64 1.32 9 2 C8.6875 3.875 8.6875 3.875 8 6 C7.01 6.66 6.02 7.32 5 8 C5 7.34 5 6.68 5 6 C4.38125 5.731875 3.7625 5.46375 3.125 5.1875 C1 4 1 4 -1 1 C-0.67 0.67 -0.34 0.34 0 0 Z " fill="#7B7BB9" transform="translate(46,37)"/>
<path d="M0 0 C3.91402949 1.26941497 5.79072873 2.51167694 8 6 C7.01 6.99 6.02 7.98 5 9 C4.34 8.34 3.68 7.68 3 7 C3 6.34 3 5.68 3 5 C2.01 5 1.02 5 0 5 C-0.5625 3.0625 -0.5625 3.0625 -1 1 C-0.67 0.67 -0.34 0.34 0 0 Z " fill="#8989C0" transform="translate(53,183)"/>
<path d="M0 0 C5.47035213 3.79037089 9.89962427 7.75027653 14 13 C9.76090342 11.6145759 7.29341975 9.67287988 4.1875 6.5 C3.39730469 5.7059375 2.60710937 4.911875 1.79296875 4.09375 C0 2 0 2 0 0 Z " fill="#EBEBF4" transform="translate(101,151)"/>
<path d="M0 0 C3.63 0 7.26 0 11 0 C11 1.65 11 3.3 11 5 C9.35 5.33 7.7 5.66 6 6 C6 5.01 6 4.02 6 3 C5.01 3 4.02 3 3 3 C3 2.34 3 1.68 3 1 C2.01 0.67 1.02 0.34 0 0 Z " fill="#3E409A" transform="translate(128,40)"/>
<path d="M0 0 C2.125 0.375 2.125 0.375 4 1 C3.67 2.65 3.34 4.3 3 6 C1.68 6.33 0.36 6.66 -1 7 C-1.625 4.625 -1.625 4.625 -2 2 C-1.34 1.34 -0.68 0.68 0 0 Z " fill="#333594" transform="translate(179,26)"/>
<path d="M0 0 C0.99 0.33 1.98 0.66 3 1 C2.67 2.65 2.34 4.3 2 6 C3.32 6.33 4.64 6.66 6 7 C4.375 8.125 4.375 8.125 2 9 C-1.25 8.125 -1.25 8.125 -4 7 C-3.01 6.34 -2.02 5.68 -1 5 C-0.27034634 2.43717258 -0.27034634 2.43717258 0 0 Z " fill="#F3F3F8" transform="translate(109,138)"/>
<path d="M0 0 C4.92980953 2.00844092 8.09403383 5.64105074 11 10 C7.22272911 8.18690997 3.62730178 6.0926741 0 4 C0 2.68 0 1.36 0 0 Z " fill="#484A9F" transform="translate(5,102)"/>
<path d="M0 0 C0.94875 0.04125 1.8975 0.0825 2.875 0.125 C3.535 1.775 4.195 3.425 4.875 5.125 C4.215 5.785 3.555 6.445 2.875 7.125 C2.875 5.475 2.875 3.825 2.875 2.125 C1.225 2.125 -0.425 2.125 -2.125 2.125 C-1.795 4.105 -1.465 6.085 -1.125 8.125 C-2.115 8.125 -3.105 8.125 -4.125 8.125 C-4.75 5.25 -4.75 5.25 -5.125 2.125 C-3.125 0.125 -3.125 0.125 0 0 Z " fill="#CFCEE5" transform="translate(145.125,41.875)"/>
<path d="M0 0 C2.89932357 2.39509338 3.50168276 4.31245243 4 8 C3.34 8 2.68 8 2 8 C2 7.34 2 6.68 2 6 C1.01 6 0.02 6 -1 6 C-1 6.99 -1 7.98 -1 9 C-1.66 9 -2.32 9 -3 9 C-2.69181644 7.68647977 -2.37832335 6.37420428 -2.0625 5.0625 C-1.88847656 4.33160156 -1.71445313 3.60070313 -1.53515625 2.84765625 C-1 1 -1 1 0 0 Z " fill="#B2B2D5" transform="translate(169,42)"/>
<path d="M0 0 C1.67542976 0.28604898 3.34385343 0.61781233 5 1 C5 2.65 5 4.3 5 6 C3.35 5.67 1.7 5.34 0 5 C-0.5625 3.0625 -0.5625 3.0625 -1 1 C-0.67 0.67 -0.34 0.34 0 0 Z " fill="#2F3292" transform="translate(72,19)"/>
<path d="M0 0 C2.97 0 5.94 0 9 0 C9 0.66 9 1.32 9 2 C8.01 2 7.02 2 6 2 C6.33 2.99 6.66 3.98 7 5 C6.72428861 7.00875442 6.39764263 9.01178687 6 11 C5.01 10.67 4.02 10.34 3 10 C3.66 10 4.32 10 5 10 C4.67 7.03 4.34 4.06 4 1 C2.68 0.67 1.36 0.34 0 0 Z " fill="#4D4FA1" transform="translate(173,40)"/>
<path d="M0 0 C6.27 0 12.54 0 19 0 C17.68 1.32 16.36 2.64 15 4 C14.67 3.34 14.34 2.68 14 2 C11.67843403 1.59270772 9.3431213 1.25561323 7 1 C6.67 1.99 6.34 2.98 6 4 C6 3.01 6 2.02 6 1 C4.02 1 2.04 1 0 1 C0 0.67 0 0.34 0 0 Z " fill="#373A96" transform="translate(85,40)"/>
<path d="M0 0 C0.66 0.99 1.32 1.98 2 3 C2.33 2.01 2.66 1.02 3 0 C4.32 0.66 5.64 1.32 7 2 C7 3.32 7 4.64 7 6 C2.545 5.01 2.545 5.01 -2 4 C-1.34 2.68 -0.68 1.36 0 0 Z " fill="#9E9ECA" transform="translate(84,202)"/>
<path d="M0 0 C4.28477792 2.30718811 7.72291137 4.32966073 11 8 C5.95575532 7.55491959 3.55556591 5.39019075 0 2 C0 1.34 0 0.68 0 0 Z " fill="#41439B" transform="translate(32,167)"/>
<path d="M0 0 C3.45201639 1.47721422 5.64961936 3.43794001 8.25 6.125 C8.95640625 6.84945312 9.6628125 7.57390625 10.390625 8.3203125 C11.18726562 9.15175781 11.18726562 9.15175781 12 10 C8.45595664 10 7.89732095 9.39010515 5.3125 7.125 C4.68988281 6.59132812 4.06726563 6.05765625 3.42578125 5.5078125 C2 4 2 4 2 2 C1.34 2 0.68 2 0 2 C0 1.34 0 0.68 0 0 Z " fill="#5254A4" transform="translate(100,153)"/>
<path d="M0 0 C2.99220268 1.36370299 5.29026529 2.94908083 7.75 5.125 C8.67039062 5.93324219 8.67039062 5.93324219 9.609375 6.7578125 C10.06828125 7.16773438 10.5271875 7.57765625 11 8 C10.67 8.99 10.34 9.98 10 11 C8.33035479 9.35718838 6.6643536 7.71067239 5 6.0625 C4.071875 5.14597656 3.14375 4.22945312 2.1875 3.28515625 C0 1 0 1 0 0 Z " fill="#4D4FA1" transform="translate(109,147)"/>
<path d="M0 0 C2.0625 0.4375 2.0625 0.4375 4 1 C4 2.65 4 4.3 4 6 C2.68 6 1.36 6 0 6 C-0.38218767 4.34385343 -0.71395102 2.67542976 -1 1 C-0.67 0.67 -0.34 0.34 0 0 Z " fill="#2F3292" transform="translate(143,43)"/>
<path d="M0 0 C1.875 0.25 1.875 0.25 4 1 C5.25 3.0625 5.25 3.0625 6 5 C6.66 5 7.32 5 8 5 C7.67 5.99 7.34 6.98 7 8 C5.68 6.68 4.36 5.36 3 4 C2.34 5.32 1.68 6.64 1 8 C0.67 5.36 0.34 2.72 0 0 Z " fill="#D3D3E7" transform="translate(121,42)"/>
<path d="M0 0 C1.98 0.66 3.96 1.32 6 2 C5.67 3.32 5.34 4.64 5 6 C3.35 5.67 1.7 5.34 0 5 C0 3.35 0 1.7 0 0 Z " fill="#7B7BB8" transform="translate(92,204)"/>
<path d="M0 0 C1.1446875 0.495 1.1446875 0.495 2.3125 1 C4.99069135 2.17436686 4.99069135 2.17436686 8 2 C7.67 2.99 7.34 3.98 7 5 C4.36 4.67 1.72 4.34 -1 4 C-0.67 2.68 -0.34 1.36 0 0 Z " fill="#383B96" transform="translate(132,134)"/>
<path d="M0 0 C0.39832031 0.50144531 0.79664063 1.00289062 1.20703125 1.51953125 C-1.00592491 2.62600933 -2.33969574 2.71541493 -4.79296875 2.76953125 C-5.49421875 2.7953125 -6.19546875 2.82109375 -6.91796875 2.84765625 C-7.53671875 2.739375 -8.15546875 2.63109375 -8.79296875 2.51953125 C-9.45296875 1.52953125 -10.11296875 0.53953125 -10.79296875 -0.48046875 C-9.35886507 -0.7300088 -7.92036803 -0.95439517 -6.48046875 -1.16796875 C-5.67996094 -1.29558594 -4.87945312 -1.42320313 -4.0546875 -1.5546875 C-1.79296875 -1.48046875 -1.79296875 -1.48046875 0 0 Z " fill="#CCCCE3" transform="translate(62.79296875,31.48046875)"/>
<path d="M0 0 C1.67542976 0.28604898 3.34385343 0.61781233 5 1 C4.67 1.66 4.34 2.32 4 3 C3.01 2.34 2.02 1.68 1 1 C1.66 1.99 2.32 2.98 3 4 C2.625 6.6875 2.625 6.6875 2 9 C1.01 8.67 0.02 8.34 -1 8 C-0.34 8 0.32 8 1 8 C0.34 5.69 -0.32 3.38 -1 1 C-0.67 0.67 -0.34 0.34 0 0 Z " fill="#D1D0E6" transform="translate(147,10)"/>
<path d="M0 0 C0.66 0 1.32 0 2 0 C1.01 3.3 0.02 6.6 -1 10 C-1.33 9.34 -1.66 8.68 -2 8 C-2.66 7.67 -3.32 7.34 -4 7 C-3.34 5.35 -2.68 3.7 -2 2 C-1.34 2 -0.68 2 0 2 C0 1.34 0 0.68 0 0 Z " fill="#383A96" transform="translate(167,41)"/>
<path d="M0 0 C0.78375 0.04125 1.5675 0.0825 2.375 0.125 C1.4159375 0.7128125 1.4159375 0.7128125 0.4375 1.3125 C-2.06278819 3.50972296 -2.27450425 4.88291433 -2.625 8.125 C-3.615 7.795 -4.605 7.465 -5.625 7.125 C-4.53409091 0.21590909 -4.53409091 0.21590909 0 0 Z " fill="#C3C3DF" transform="translate(158.625,12.875)"/>
<path d="M0 0 C2.475 0.99 2.475 0.99 5 2 C5 2.99 5 3.98 5 5 C4.34 5.66 3.68 6.32 3 7 C2.67 6.01 2.34 5.02 2 4 C1.01 4.495 1.01 4.495 0 5 C0 3.35 0 1.7 0 0 Z " fill="#9A9AC8" transform="translate(62,190)"/>
<path d="M0 0 C1.65 0.99 3.3 1.98 5 3 C4.67 4.32 4.34 5.64 4 7 C2.02 5.68 0.04 4.36 -2 3 C-1.34 2.67 -0.68 2.34 0 2 C0 1.34 0 0.68 0 0 Z " fill="#5254A4" transform="translate(230,83)"/>
<path d="M0 0 C0.99 0.66 1.98 1.32 3 2 C2.54625 2.433125 2.0925 2.86625 1.625 3.3125 C-0.20024334 5.10798342 -0.20024334 5.10798342 -2 8 C-2.99 7.67 -3.98 7.34 -5 7 C-4.34 6.34 -3.68 5.68 -3 5 C-3.66 4.01 -4.32 3.02 -5 2 C-3.68 2 -2.36 2 -1 2 C-0.67 1.34 -0.34 0.68 0 0 Z " fill="#D9D9EA" transform="translate(173,20)"/>
<path d="M0 0 C3.7952131 1.49097658 5.61042731 3.75700849 8 7 C5 7 5 7 2.3125 4.625 C0 2 0 2 0 0 Z " fill="#E3E3F0" transform="translate(109,154)"/>
<path d="M0 0 C0.66 1.32 1.32 2.64 2 4 C1.01 5.32 0.02 6.64 -1 8 C-2.65 7.67 -4.3 7.34 -6 7 C-5.071875 6.6596875 -5.071875 6.6596875 -4.125 6.3125 C-1.38589791 4.62070165 -0.94975528 3.00755839 0 0 Z " fill="#C5C4E0" transform="translate(193,35)"/>
<path d="M0 0 C1.32 0 2.64 0 4 0 C3.67 1.32 3.34 2.64 3 4 C1.35 4.33 -0.3 4.66 -2 5 C-1.67 3.68 -1.34 2.36 -1 1 C-1 1.99 -1 2.98 -1 4 C-0.67 2.68 -0.34 1.36 0 0 Z " fill="#5052A3" transform="translate(99,13)"/>
<path d="M0 0 C2.31 0.33 4.62 0.66 7 1 C6.01 1.495 6.01 1.495 5 2 C5 2.66 5 3.32 5 4 C3.68 4.33 2.36 4.66 1 5 C0.67 3.35 0.34 1.7 0 0 Z " fill="#8585BD" transform="translate(147,206)"/>
<path d="M0 0 C0.99 0 1.98 0 3 0 C2.67 1.65 2.34 3.3 2 5 C0.35 5.33 -1.3 5.66 -3 6 C-3.33 4.68 -3.66 3.36 -4 2 C-3.34 2 -2.68 2 -2 2 C-2 2.66 -2 3.32 -2 4 C-1.34 4 -0.68 4 0 4 C0 2.68 0 1.36 0 0 Z " fill="#8F8FC3" transform="translate(161,202)"/>
<path d="M0 0 C6.42857143 4.14285714 6.42857143 4.14285714 9 7 C8.01 7.33 7.02 7.66 6 8 C4.99403703 7.0479279 3.99538437 6.08812654 3 5.125 C2.443125 4.59132813 1.88625 4.05765625 1.3125 3.5078125 C0 2 0 2 0 0 Z " fill="#4D4FA1" transform="translate(188,89)"/>
<path d="M0 0 C0.4125 0.61875 0.825 1.2375 1.25 1.875 C3.05573879 4.06768281 4.4090534 4.92788417 7 6 C5.25 6.75 5.25 6.75 3 7 C0.75 5.0625 0.75 5.0625 -1 3 C-0.67 2.01 -0.34 1.02 0 0 Z " fill="#D3D3E8" transform="translate(70,20)"/>
<path d="M0 0 C0.99 0.33 1.98 0.66 3 1 C2.01 1.495 2.01 1.495 1 2 C0.64587656 3.32796291 0.31478446 4.66216607 0 6 C-0.99 7.485 -0.99 7.485 -2 9 C-2.66 8.34 -3.32 7.68 -4 7 C-2.68 4.69 -1.36 2.38 0 0 Z " fill="#DDDDED" transform="translate(167,17)"/>
<path d="M0 0 C0.99 0.33 1.98 0.66 3 1 C2.67 2.32 2.34 3.64 2 5 C0.68 4.67 -0.64 4.34 -2 4 C-1.34 2.68 -0.68 1.36 0 0 Z " fill="#8989C0" transform="translate(101,206)"/>
<path d="M0 0 C0.66 0.66 1.32 1.32 2 2 C2.99 1.67 3.98 1.34 5 1 C5 1.99 5 2.98 5 4 C3.02 4.66 1.04 5.32 -1 6 C-1.33 4.68 -1.66 3.36 -2 2 C-1.34 2 -0.68 2 0 2 C0 1.34 0 0.68 0 0 Z " fill="#9191C4" transform="translate(173,196)"/>
<path d="M0 0 C2.66666667 0 5.33333333 0 8 0 C7.34 1.98 6.68 3.96 6 6 C4 5 4 5 3 2 C2.01 1.34 1.02 0.68 0 0 Z " fill="#C5C4E0" transform="translate(115,164)"/>
<path d="M0 0 C0.75 1.6875 0.75 1.6875 1 4 C-0.9375 6.75 -0.9375 6.75 -3 9 C-3.66 8.67 -4.32 8.34 -5 8 C-4.67 7.01 -4.34 6.02 -4 5 C-3.34 4.67 -2.68 4.34 -2 4 C-0.86649466 1.98330173 -0.86649466 1.98330173 0 0 Z " fill="#B5B5D7" transform="translate(137,154)"/>
<path d="M0 0 C1.33897583 0.95043374 2.67105427 1.91059147 4 2.875 C5.11375 3.67550781 5.11375 3.67550781 6.25 4.4921875 C6.8275 4.98976562 7.405 5.48734375 8 6 C8 6.66 8 7.32 8 8 C4.63820226 6.55922954 2.40843732 4.75249979 0 2 C0 1.34 0 0.68 0 0 Z " fill="#EDEDF5" transform="translate(101,156)"/>
<path d="M0 0 C3.96 0.33 7.92 0.66 12 1 C12 1.33 12 1.66 12 2 C8.37 2.66 4.74 3.32 1 4 C0.67 2.68 0.34 1.36 0 0 Z " fill="#C0C0DD" transform="translate(187,172)"/>
<path d="M0 0 C1.67542976 0.28604898 3.34385343 0.61781233 5 1 C5 1.99 5 2.98 5 4 C4.34 4.66 3.68 5.32 3 6 C1.68 4.35 0.36 2.7 -1 1 C-0.67 0.67 -0.34 0.34 0 0 Z " fill="#E2E1EF" transform="translate(106,145)"/>
<path d="M0 0 C1.32 0 2.64 0 4 0 C3.6875 1.875 3.6875 1.875 3 4 C2.01 4.66 1.02 5.32 0 6 C0 4.02 0 2.04 0 0 Z " fill="#2A2D8F" transform="translate(121,130)"/>
<path d="M0 0 C2.50298434 2.93828597 3.46930939 5.17902761 4 9 C3.34 9 2.68 9 2 9 C1.01 6.36 0.02 3.72 -1 1 C-0.67 0.67 -0.34 0.34 0 0 Z " fill="#D2D2E7" transform="translate(99,42)"/>
<path d="M0 0 C1.98 1.65 3.96 3.3 6 5 C5.67 5.99 5.34 6.98 5 8 C5 7.34 5 6.68 5 6 C4.38125 5.731875 3.7625 5.46375 3.125 5.1875 C1 4 1 4 -1 1 C-0.67 0.67 -0.34 0.34 0 0 Z " fill="#DEDEED" transform="translate(46,37)"/>
<path d="M0 0 C2.25245881 2.68841859 3.88213958 4.64641875 5 8 C4.01 8.495 4.01 8.495 3 9 C0.9375 6.1875 0.9375 6.1875 -1 3 C-0.67 2.01 -0.34 1.02 0 0 Z " fill="#E1E1EF" transform="translate(64,22)"/>
<path d="M0 0 C1.32 0.99 2.64 1.98 4 3 C3.34 3 2.68 3 2 3 C2 3.66 2 4.32 2 5 C0.68 5 -0.64 5 -2 5 C-2.33 5.66 -2.66 6.32 -3 7 C-3 5.68 -3 4.36 -3 3 C-1.02 3.495 -1.02 3.495 1 4 C0.67 2.68 0.34 1.36 0 0 Z " fill="#B1B1D4" transform="translate(182,191)"/>
<path d="M0 0 C0 0.66 0 1.32 0 2 C-2.97 1.67 -5.94 1.34 -9 1 C-4.82091936 -1.08954032 -4.19589427 -1.16552619 0 0 Z " fill="#5F60AA" transform="translate(135,141)"/>
<path d="" fill="#000000" transform="translate(0,0)"/>
<path d="" fill="#000000" transform="translate(0,0)"/>
<path d="" fill="#0000FF" transform="translate(0,0)"/>
<path d="" fill="#0000FF" transform="translate(0,0)"/>
<path d="" fill="#000000" transform="translate(0,0)"/>
<path d="" fill="#000000" transform="translate(0,0)"/>
<path d="" fill="#000000" transform="translate(0,0)"/>
<path d="" fill="#000000" transform="translate(0,0)"/>
<path d="" fill="#000000" transform="translate(0,0)"/>
</svg>
